<?xml version="1.0" standalone="no"?>
<!DOCTYPE svg PUBLIC "-//W3C//DTD SVG 1.1//EN" "http://www.w3.org/Graphics/SVG/1.1/DTD/svg11.dtd" >
<svg xmlns="http://www.w3.org/2000/svg" xmlns:xlink="http://www.w3.org/1999/xlink" version="1.1">
<metadata>
Created by FontForge 20160405 at Wed Sep 28 03:45:06 2016
 By www-data
(c) Copyright Beijing HANYI KEYIN Information Technology Co.
</metadata>
<defs>
<font id="HYQiHei-CES" horiz-adv-x="1000" vert-adv-y="1000" >
  <font-face 
    font-family="HYQiHei-35S"
    font-weight="100"
    font-stretch="normal"
    units-per-em="1000"
    panose-1="0 2 6 0 4 1 1 1 1 1"
    ascent="850"
    descent="-150"
    bbox="0 -151 1000 826"
    underline-thickness="50"
    underline-position="-328"
    unicode-range="U+2013-FFE5"
  />
<missing-glyph 
 />
    <glyph glyph-name=".notdef" 
 />
    <glyph glyph-name=".null" horiz-adv-x="0" vert-adv-y="0" 
 />
    <glyph glyph-name="nonmarkingreturn" 
 />
    <glyph glyph-name="endash" unicode="&#x2013;" 
d="M250 360v-37h500v37h-500z" />
    <glyph glyph-name="emdash" unicode="&#x2014;" 
d="M0 360v-37h1000v37h-1000z" />
    <glyph glyph-name="quoteright" unicode="&#x2019;" 
d="M294 576v-27q29 16 47 44.5t18 75.5v120h-61v-121h31q0 -37 -9.5 -58.5t-25.5 -33.5z" />
    <glyph glyph-name="quotedblleft" unicode="&#x201c;" 
d="M649 669v-120h60v121h-31q0 37 9.5 58t24.5 34v27q-28 -16 -45.5 -46t-17.5 -74zM506 669v-120h60v121h-31q0 37 9.5 58t24.5 34v27q-28 -16 -45.5 -46t-17.5 -74z" />
    <glyph glyph-name="quotedblright" unicode="&#x201d;" 
d="M288 576v-27q29 16 46 45.5t17 74.5v120h-60v-121h31q0 -37 -9 -58.5t-25 -33.5zM431 576v-27q29 16 46 45.5t17 74.5v120h-60v-121h31q0 -37 -9 -58.5t-25 -33.5z" />
    <glyph glyph-name="ellipsis" unicode="&#x2026;" 
d="M135 385v-87h86v87h-86zM778 385v-87h86v87h-86zM454 385v-87h86v87h-86z" />
    <glyph glyph-name="uni2103" unicode="&#x2103;" 
d="M91 668q0 -38 28 -65.5t65 -27.5q38 0 65.5 27.5t27.5 65.5t-27.5 66.5t-65.5 28.5q-37 0 -65 -28.5t-28 -66.5zM118 668q0 27 19.5 46.5t46.5 19.5q28 0 47.5 -19.5t19.5 -46.5q0 -26 -19.5 -45.5t-47.5 -19.5q-27 0 -46.5 19.5t-19.5 45.5zM320 329q0 -163 81 -270.5
t227 -107.5q116 0 183 54t98 140l-40 7q-31 -79 -91 -120t-150 -41q-116 0 -191 91.5t-75 246.5q0 171 73.5 252.5t192.5 81.5q82 0 143.5 -38.5t85.5 -108.5l44 9q-22 67 -88 122.5t-185 55.5q-163 0 -235.5 -109t-72.5 -265z" />
    <glyph glyph-name="uni2109" unicode="&#x2109;" 
d="M451 683v-713h42v344h361v39h-361v291h395v39h-437zM111 668q0 -38 27 -65.5t65 -27.5t65.5 27.5t27.5 65.5t-27.5 66.5t-65.5 28.5t-65 -28.5t-27 -66.5zM136 668q0 27 19.5 46.5t47.5 19.5q27 0 46.5 -19.5t19.5 -46.5q0 -26 -19.5 -45.5t-46.5 -19.5q-28 0 -47.5 19.5
t-19.5 45.5z" />
    <glyph glyph-name="uni3001" unicode="&#x3001;" 
d="M190 131q97 -86 158 -201l48 35q-32 54 -76 99q-47 49 -103 88z" />
    <glyph glyph-name="uni3002" unicode="&#x3002;" 
d="M209 33q0 44 30.5 75t74.5 31t74.5 -31t30.5 -75t-30.5 -74.5t-74.5 -30.5t-74.5 30.5t-30.5 74.5zM177 33q0 -57 40 -97t97 -40q56 0 96.5 40t40.5 97q0 56 -40.5 97t-96.5 41q-57 0 -97 -41t-40 -97z" />
    <glyph glyph-name="uni300A" unicode="&#x300a;" 
d="M611 345l201 -473h39l-201 473l201 469h-39zM474 345l200 -473h39l-200 473l200 469h-39z" />
    <glyph glyph-name="uni300B" unicode="&#x300b;" 
d="M150 814l200 -469l-200 -473h38l201 473l-201 469h-38zM287 814l201 -469l-201 -473h39l200 473l-200 469h-39z" />
    <glyph glyph-name="uni300C" unicode="&#x300c;" 
d="M635 814v-834h40v799h178v35h-218z" />
    <glyph glyph-name="uni300D" unicode="&#x300d;" 
d="M147 -93v-35h218v835h-40v-800h-178z" />
    <glyph glyph-name="uni3010" unicode="&#x3010;" 
d="M614 814v-942h238q-51 74 -83 219.5t-32 253.5q1 60 10 120q10 70 27 139q17 67 41 132q15 40 36 78h-237z" />
    <glyph glyph-name="uni3011" unicode="&#x3011;" 
d="M148 -128h238v942h-237q21 -38 36 -78q24 -65 41 -132q16 -69 27 -139q9 -60 10 -120q0 -108 -32 -253.5t-83 -219.5z" />
    <glyph glyph-name="uni4E00" unicode="&#x4e00;" 
d="M958 359v43h-916v-43h916z" />
    <glyph glyph-name="uni4E07" unicode="&#x4e07;" 
d="M449 1l8 -39h151q95 0 130 30t42 125q13 175 25 350h-434l3 36q6 87 8 175h565v38h-888v-38h282q-2 -88 -9 -175q-13 -197 -62.5 -313t-210.5 -244l32 -30q150 120 205 232.5t72 280.5h393q-9 -150 -22 -300q-6 -80 -34.5 -104t-108.5 -24h-147z" />
    <glyph glyph-name="uni4E09" unicode="&#x4e09;" 
d="M948 -8v39h-895v-39h895zM889 655v39h-778v-39h778zM844 342v38h-687v-38h687z" />
    <glyph glyph-name="uni4E0A" unicode="&#x4e0a;" 
d="M901 457v37h-404v305h-40v-791h-410v-38h910v38h-460v449h404z" />
    <glyph glyph-name="uni4E0B" unicode="&#x4e0b;" 
d="M456 -96h40v765h450v38h-890v-38h400v-765zM854 223l26 34q-157 124 -322 239l-22 -32q163 -115 318 -241z" />
    <glyph glyph-name="uni4E0D" unicode="&#x4e0d;" 
d="M921 674v39h-838v-39h464q-87 -159 -213 -289q-124 -127 -269 -227l27 -34q149 107 276 241q132 140 224 309h329zM481 -94h39v575h-39v-575zM904 134l29 33q-162 148 -330 289l-24 -30q166 -142 325 -292z" />
    <glyph glyph-name="uni4E0E" unicode="&#x4e0e;" 
d="M472 -24l7 -38h179q91 0 122.5 28.5t38.5 118.5l21 325h-572l14 193h633v38h-630l11 146h-40l-32 -415h574l-19 -277q-5 -75 -31 -97t-102 -22h-174zM704 157v38h-658v-38h658z" />
    <glyph glyph-name="uni4E13" unicode="&#x4e13;" 
d="M788 -98l14 38q-110 42 -221 81q122 101 222 223v39h-498q32 76 60 153h581v36h-568q28 77 52 155h461v36h-450q19 65 35 131l-40 4q-17 -68 -37 -135h-290v-36h279q-24 -78 -52 -155h-282v-36h268q-30 -81 -64 -160v-29h491q-42 -57 -93 -107q-55 -55 -115 -104
q-174 63 -350 122l-12 -36q307 -104 609 -220z" />
    <glyph glyph-name="uni4E14" unicode="&#x4e14;" 
d="M957 -38v36h-172v736h-569v-736h-172v-36h913zM255 215h490v-217h-490v217zM255 457h490v-206h-490v206zM255 697h490v-204h-490v204z" />
    <glyph glyph-name="uni4E16" unicode="&#x4e16;" 
d="M780 798h-38v-251h-258v250h-38v-250h-211v226h-40v-226h-153v-38h153v-538h737v37h-697v501h211v-313h334v313h178v38h-178v251zM484 233v276h258v-276h-258z" />
    <glyph glyph-name="uni4E1A" unicode="&#x4e1a;" 
d="M949 -28v39h-312v779h-40v-779h-191v779h-40v-779h-313v-39h896zM275 199l38 17q-85 202 -178 401l-36 -16q92 -199 176 -402zM907 597l-38 16q-82 -203 -181 -399l36 -18q98 197 183 401z" />
    <glyph glyph-name="uni4E1C" unicode="&#x4e1c;" 
d="M883 310v36h-342v200h-37v-200h-292q76 133 147 269h566v36h-547q35 68 66 138l-39 14q-34 -77 -74 -152h-264v-36h245q-71 -135 -148 -268v-37h340v-262q0 -45 -18 -60t-70 -15h-105l6 -36h109q65 0 90 20.5t25 81.5v271h342zM323 201l-32 26q-102 -142 -240 -249
l27 -32q139 111 245 255zM908 -47l29 30q-123 124 -253 242l-28 -28q131 -117 252 -244z" />
    <glyph glyph-name="uni4E1D" unicode="&#x4e1d;" 
d="M906 199v36l-303 -19q85 97 160 201q70 94 130 194l-30 17q-45 -77 -98 -149l-208 -3q103 142 188 296l-33 16q-47 -88 -101 -171q-43 -67 -93 -128q-20 -16 -45 -22l10 -34q128 10 257 12q-45 -61 -94 -120q-44 -53 -93 -100q-4 -4 -16.5 -10t-35.5 -10l6 -36
q199 17 399 30zM459 195v37l-246 -13q80 95 150 198q69 98 130 202l-31 16q-46 -80 -99 -155l-201 -3q57 76 107 156q44 69 81 141l-34 16q-44 -88 -99 -170q-44 -69 -96 -131q-20 -14 -44 -19l8 -35q127 7 254 10q-44 -63 -91 -123q-39 -50 -84 -95q-23 -16 -51 -21l8 -36
q169 17 338 25zM953 -43v36h-906v-36h906z" />
    <glyph glyph-name="uni4E22" unicode="&#x4e22;" 
d="M880 705l-8 36q-171 -21 -343 -35q-210 -17 -421 -25l5 -36q186 7 371 21v-175h-354v-35h354v-176h-430v-36h360q-99 -115 -216 -212q-38 -32 -87 -37l10 -40q334 20 668 32q38 -38 75 -76l28 28q-125 125 -250 251l-28 -25l141 -143l-531 -17q127 112 239 239h486v36
h-428v176h352v35h-352v178q180 14 359 36z" />
    <glyph glyph-name="uni4E24" unicode="&#x4e24;" 
d="M125 -74h36v569h187q-8 -133 -42 -218.5t-118 -184.5l30 -21q55 64 97 138q31 59 48 123q51 -58 101 -117l28 24l-120 135q10 60 12 121h206q-3 -140 -46 -242t-133 -206l31 -18q60 68 104 147q35 64 55 135q78 -89 154 -179l28 24q-85 99 -172 196q14 71 16 143h189
v-436q0 -43 -16 -58.5t-67 -15.5h-110l6 -36h114q65 0 88 21t23 81v479h-226q1 84 1 169h300v35h-881v-35h303q0 -85 -1 -169h-225v-604zM388 699h204l-2 -169h-204q2 84 2 169z" />
    <glyph glyph-name="uni4E25" unicode="&#x4e25;" 
d="M947 366v34h-305v292h310v34h-881v-34h321v-292h-226v-135q0 -119 -23.5 -189.5t-92.5 -159.5l34 -17q71 92 95 166t24 192v109h744zM431 692h171v-292h-171v292zM285 447l30 26q-70 85 -141 168l-29 -23q73 -83 140 -171zM882 622l-30 20q-65 -89 -138 -171l29 -22
q75 82 139 173z" />
    <glyph glyph-name="uni4E26" unicode="&#x4e26;" 
d="M946 -38v36h-320v573h281v36h-815v-36h280v-573h-319v-36h893zM408 571h182v-573h-182v573zM267 120l34 16l-144 300l-33 -16zM866 418l-32 16q-68 -151 -144 -298l32 -18q75 148 144 300zM741 790l-34 18q-53 -83 -113 -160l30 -20q62 79 117 162zM384 640l34 19
q-50 78 -105 153l-32 -19q54 -75 103 -153z" />
    <glyph glyph-name="uni4E2A" unicode="&#x4e2a;" 
d="M933 343l25 38q-123 75 -231 170q-113 101 -200 225h-54q-86 -123 -198 -223q-108 -97 -232 -172l22 -38q252 157 435 391q182 -234 433 -391zM479 -97h41v580h-41v-580z" />
    <glyph glyph-name="uni4E2D" unicode="&#x4e2d;" 
d="M478 -101h40v329h309v-80h40v440h-349v212h-40v-212h-346v-442h40v82h306v-329zM827 550v-284h-309v284h309zM172 550h306v-284h-306v284z" />
    <glyph glyph-name="uni4E30" unicode="&#x4e30;" 
d="M480 -100h39v240h427v37h-427v197h344v36h-344v189h391v37h-391v162h-39v-162h-392v-37h392v-189h-345v-36h345v-197h-428v-37h428v-240z" />
    <glyph glyph-name="uni4E34" unicode="&#x4e34;" 
d="M458 -87h36v79h351v-79h36v459h-423v-459zM845 338v-312h-159v312h159zM494 338h158v-312h-158v312zM284 -96h38v889h-38v-889zM611 797l-39 10q-66 -196 -192 -361l34 -25q70 95 123 200h419v38h-400q31 68 55 138zM117 1h38v707h-38v-707zM759 413l28 24
q-68 78 -140 151l-27 -22q72 -75 139 -153z" />
    <glyph glyph-name="uni4E3A" unicode="&#x4e3a;" 
d="M506 795h-40q-6 -113 -17 -226l-2 -17h-362v-38h358q-25 -189 -106.5 -313.5t-261.5 -252.5l30 -30q185 134 269 265.5t109 330.5h339q-7 -213 -24 -426q-5 -60 -33 -79t-102 -19h-149l8 -39h153q86 0 121 25t40 94q17 241 27 482h-376l2 17q12 113 17 226zM672 188
l29 27l-161 173l-28 -26q81 -86 160 -174zM314 602l29 26q-70 77 -144 151l-28 -23q73 -76 143 -154z" />
    <glyph glyph-name="uni4E3B" unicode="&#x4e3b;" 
d="M873 281v38h-354v249h397v38h-832v-38h395v-249h-352v-38h352v-278h-428v-38h898v38h-430v278h354zM524 634l35 20q-48 78 -97 155l-34 -18q51 -77 96 -157z" />
    <glyph glyph-name="uni4E3D" unicode="&#x4e3d;" 
d="M562 -86h34v596h238v-479q0 -38 -12 -50.5t-58 -12.5h-80l6 -35h82q59 0 78 17t19 67v529h-307v-632zM133 -86h34v596h227v-479q0 -39 -12 -51t-56 -12h-76l6 -35h79q58 0 76 16.5t18 67.5v529h-296v-632zM952 692v36h-901v-36h901zM763 171l28 18q-61 99 -126 195
l-26 -17q65 -96 124 -196zM325 172l28 16q-58 99 -119 197l-26 -15q61 -98 117 -198z" />
    <glyph glyph-name="uni4E3E" unicode="&#x4e3e;" 
d="M827 779l-36 12q-61 -111 -132 -216h-598v-36h297q-49 -88 -126.5 -157.5t-187.5 -125.5l18 -32q117 62 202 140.5t135 174.5h204q53 -96 135.5 -172t200.5 -138l18 32q-113 58 -187.5 124t-126.5 154h297v36h-238q66 100 125 204zM761 281v35h-243v152h-38v-152h-242
v-35h242v-159h-395v-36h395v-190h38v190h396v36h-396v159h243zM524 616l34 14q-43 87 -91 172l-34 -12q47 -86 91 -174zM285 614l34 17q-55 81 -114 160l-32 -16q58 -79 112 -161z" />
    <glyph glyph-name="uni4E45" unicode="&#x4e45;" 
d="M409 789l-40 12q-97 -251 -285 -443l29 -30q121 123 207 273h311q-73 -213 -206.5 -361t-370.5 -282l25 -38q80 47 157 100q67 48 129 102q99 87 173 195q67 -127 169 -227q96 -93 212 -161l27 38q-133 75 -228.5 171t-154.5 217q71 117 115 247v37h-337q38 73 68 150z
" />
    <glyph glyph-name="uni4E48" unicode="&#x4e48;" 
d="M882 -79l37 24q-118 190 -241 377l-34 -22q77 -119 152 -239l-542 -25q147 135 276 288q117 136 215 287l-37 20q-97 -152 -215 -288q-69 -81 -142 -157q-63 -65 -132 -125q-15 -12 -32 -19q-25 -9 -51 -15l10 -42q337 22 674 36zM503 757l-38 22q-84 -139 -192 -260
q-93 -106 -204 -195l30 -32q110 91 205 199q111 124 199 266z" />
    <glyph glyph-name="uni4E49" unicode="&#x4e49;" 
d="M929 -81l19 44q-125 48 -242 113q-87 49 -165 112q97 93 160 218.5t110 307.5l-40 14q-44 -178 -106 -300t-157 -211q-92 86 -157 193q-41 67 -73 138q-37 81 -66 164l-38 -14q30 -85 67 -167q33 -74 74 -142q68 -111 162 -200q-79 -65 -169 -114q-123 -66 -253 -117
l22 -40q134 54 261 123q92 51 172 119q79 -67 170 -119q120 -69 249 -122zM544 538l36 21q-70 116 -142 232l-34 -19q71 -116 140 -234z" />
    <glyph glyph-name="uni4E4B" unicode="&#x4e4b;" 
d="M945 -27l8 38h-410q-112 0 -164.5 18t-103.5 77l-14 15q181 97 343 221q78 60 150 127q46 44 88 93v38h-711v-38h655q-40 -45 -84 -86q-69 -62 -143 -118q-158 -118 -333 -210q-10 4 -20 4q-13 0 -26.5 -6.5t-33.5 -29.5q-49 -57 -95 -118l28 -33q40 53 82 105
q18 21 29 27t18 5q9 0 22.5 -7.5t32.5 -30.5q50 -56 107 -73.5t176 -17.5h399zM523 625l38 12q-42 82 -88 162l-37 -12q45 -80 87 -162z" />
    <glyph glyph-name="uni4E4E" unicode="&#x4e4e;" 
d="M881 710l-6 37q-175 -22 -350 -35q-220 -17 -440 -23l4 -38q200 6 399 22v-354h-444v-37h444v-228q0 -46 -17 -64.5t-79 -18.5h-138l7 -36h133q77 0 104.5 25.5t27.5 85.5v236h431v37h-431v356q178 13 355 35zM840 584l-30 22q-79 -101 -162 -198l31 -22q81 98 161 198z
M319 386l30 24q-74 99 -153 193l-29 -22q80 -95 152 -195z" />
    <glyph glyph-name="uni4E4F" unicode="&#x4e4f;" 
d="M956 -45l7 38h-425q-111 0 -161 16.5t-97 69.5q-1 0 -1 0.5t-1 1.5q165 72 320 165q71 43 139 92q43 33 83 69v39h-690v-38h628q-99 -84 -211 -149q-143 -86 -296 -152q-11 8 -21 12t-18 4q-15 1 -28 -6t-33 -28q-49 -55 -97 -111l28 -34q40 50 82 99q17 20 29 26.5
t21 5.5q9 0 23 -8.5t32 -28.5q47 -51 102 -67t170 -16h415zM876 711l-8 38q-384 -61 -773 -82l6 -38q390 21 775 82zM521 462l37 12q-32 73 -71 142l-36 -14q38 -69 70 -140z" />
    <glyph glyph-name="uni4E50" unicode="&#x4e50;" 
d="M915 348v38h-377v224h-42v-224h-309l32 273q175 8 349 24q145 12 289 33l-8 38q-332 -46 -668 -57l-38 -349h353v-300q0 -45 -16.5 -59t-67.5 -14h-110l8 -38h114q66 0 90 19.5t24 80.5v311h377zM904 -43l34 26q-116 141 -237 277l-31 -23q120 -138 234 -280zM318 243
l-34 20q-100 -153 -231 -281l32 -26q130 132 233 287z" />
    <glyph glyph-name="uni4E5D" unicode="&#x4e5d;" 
d="M931 220l-36 7q-3 -86 -8 -171q-1 -35 -17 -48.5t-59 -13.5h-66q-34 0 -48.5 14.5t-14.5 51.5v515h-307l5 223h-40l-5 -223h-271v-40h270q-4 -242 -58 -351t-221 -241l29 -30q173 140 229 256t61 366h268v-481q0 -56 22.5 -77t70.5 -21h83q58 0 81 18.5t25 66.5
q4 89 7 179z" />
    <glyph glyph-name="uni4E5F" unicode="&#x4e5f;" 
d="M923 181l-40 8q-2 -57 -5 -113t-25 -72t-94 -16h-389q-70 0 -97.5 23.5t-27.5 92.5v334l242 59v-403h38v412l269 66q-6 -121 -14 -241q-2 -49 -21 -64t-75 -15h-91l8 -37h97q65 0 91 20.5t30 79.5q10 152 17 305l-311 -76v253h-38v-262l-242 -59v210h-38v-219l-159 -38
l6 -37l153 37v-337q0 -81 33.5 -110.5t115.5 -29.5h420q79 0 107 19t32 83q5 63 8 127z" />
    <glyph glyph-name="uni4E60" unicode="&#x4e60;" 
d="M472 -9l8 -40h171q95 0 132 30.5t42 116.5q13 306 23 613h-757v-40h714q-9 -280 -22 -559q-4 -71 -34 -96t-112 -25h-165zM721 329l-10 40q-314 -134 -631 -261l15 -39zM489 355l26 34q-146 102 -294 200l-26 -31q149 -99 294 -203z" />
    <glyph glyph-name="uni4E66" unicode="&#x4e66;" 
d="M558 48l8 -38h156q74 0 107 25t40 85q13 112 22 224h-144l26 282h-363v177h-38v-177h-265v-38h265v-244h-331v-38h331v-410h38v410h439q-9 -86 -20 -172q-5 -48 -30.5 -67t-84.5 -19h-156zM731 588l-22 -244h-299v244h321zM917 585l26 30q-115 90 -234 175l-23 -30
q118 -85 231 -175z" />
    <glyph glyph-name="uni4E70" unicode="&#x4e70;" 
d="M616 629h-39q-1 -102 -5 -204q-1 -54 -8 -107q-5 -40 -16 -79h-489v-35h477q-39 -94 -142.5 -151.5t-317.5 -103.5l14 -37q173 40 275.5 85t157.5 112q190 -94 377 -192l20 34q-187 95 -376 187q20 31 32 66h369v35h-358q22 90 24 182q4 104 5 208zM759 502l34 -14
l87 195v37h-779v-36h739zM385 287l17 32q-127 78 -257 152l-18 -30q130 -75 258 -154zM452 456l18 33q-120 69 -243 133l-17 -30q122 -65 242 -136z" />
    <glyph glyph-name="uni4E71" unicode="&#x4e71;" 
d="M499 705l-6 36q-93 -18 -186 -29q-122 -15 -244 -23l2 -36q103 6 206 18v-179h-230v-36h230v-182h-151v-374h37v73h303v301h-151v182h226v36h-226v184q96 10 190 29zM157 238h265v-229h-265v229zM920 204l-38 8q-1 -75 -5 -149q-1 -49 -19 -64.5t-70 -15.5h-53
q-44 0 -62.5 16.5t-18.5 67.5v720h-38v-726q0 -68 25 -92t86 -24h69q65 0 90.5 22t26.5 84q4 76 7 153z" />
    <glyph glyph-name="uni4E7E" unicode="&#x4e7e;" 
d="M110 534v-300h143v-123h-206v-34h206v-176h36v176h203v34h-203v123h143v300h-143v115h195v33h-195v118h-36v-118h-193v-33h193v-115h-143zM541 447v-34h241q-146 -172 -204.5 -258.5t-58.5 -132.5q0 -36 28.5 -52.5t70.5 -16.5h190q59 0 82 18t26 68q3 63 5 126l-36 7
q-1 -61 -5 -122q-1 -37 -16.5 -50t-63.5 -13h-174q-32 0 -48 10.5t-16 32.5q0 29 54.5 112t213.5 271v34h-289zM146 265v103h250v-103h-250zM146 502h250v-103h-250v103zM675 796l-36 8q-52 -175 -152 -327l30 -20q50 76 89 159h342v36h-326q30 71 53 144z" />
    <glyph glyph-name="uni4E82" unicode="&#x4e82;" 
d="M552 665l-27 17q-49 -67 -106 -129h-323v-26h403q-74 -49 -156 -85l-154 66l-14 -22q91 -37 181 -78h-246v-493h33v467h396v-360q0 -41 -13 -54t-62 -13h-79l6 -28h80q62 0 81.5 18t19.5 71v392h-190l10 13l-20 9q59 27 117 57q34 18 66 40v26h-97q49 54 94 112zM927 181
l-34 6q-1 -68 -4 -135q-1 -40 -15 -55.5t-57 -15.5h-32q-36 0 -51 16.5t-15 55.5v723h-34v-735q0 -54 22.5 -75t71.5 -21h40q60 0 81 20t23 76q3 70 4 140zM202 190v-25h229q-37 -47 -87 -80l-117 49l-10 -22q51 -21 101 -44q-66 -38 -140 -60l14 -26q81 28 154 74
q61 -27 121 -56l12 25l-108 48q54 39 94 92v25h-263zM601 723l-4 30q-262 -29 -525 -41l3 -30q264 12 526 41zM475 228l18 17q-50 53 -102 103l-18 -14l55 -56l-170 -5q44 42 85 87l-24 11q-38 -44 -84 -81q-18 -13 -39 -20l4 -22q124 6 248 9zM354 570l29 14q-31 48 -63 96
l-28 -14q32 -47 62 -96zM198 566l28 14q-30 46 -65 88l-27 -14q34 -43 64 -88z" />
    <glyph glyph-name="uni4E86" unicode="&#x4e86;" 
d="M88 710v-39h700l-303 -220v-384q0 -52 -19 -68t-79 -16h-133l7 -39h138q77 0 102.5 22t25.5 87v378l329 240v39h-768z" />
    <glyph glyph-name="uni4E88" unicode="&#x4e88;" 
d="M725 170l34 -20q47 63 89 129q30 43 53 91v36h-845v-36h429v-311q0 -52 -19.5 -69t-75.5 -17h-117l7 -36h123q71 0 95.5 22t24.5 86v325h334q-59 -105 -132 -200zM546 412l25 28q-22 15 -44 32q95 64 186 135q55 41 105 89v36h-679v-36h615q-52 -51 -111 -96
q-72 -55 -148 -105q-95 69 -192 137l-22 -28q134 -94 265 -192z" />
    <glyph glyph-name="uni4E89" unicode="&#x4e89;" 
d="M779 77h36v250h135v33h-135v176h-240l130 145v34h-371q34 40 61 84l-37 13q-59 -90 -137 -165q-73 -70 -157 -127l26 -29q118 83 215 190h348l-128 -145h-367v-32h309v-144h-424v-33h424v-146h-348v-32h348v-96q0 -44 -19 -60.5t-72 -16.5h-120l6 -34h124q66 0 92 22.5
t26 78.5v106h275v-72zM504 327h275v-146h-275v146zM779 504v-144h-275v144h275z" />
    <glyph glyph-name="uni4E8B" unicode="&#x4e8b;" 
d="M517 804h-36v-91h-424v-30h424v-90h-311v-144h311v-90h-376v-28h376v-95h-441v-28h441v-94h-385v-29h385v-45q0 -44 -17 -60t-67 -16h-122l6 -32h124q65 0 88.5 21.5t23.5 80.5v51h291v-57h34v180h109v28h-109v123h-325v90h304v144h-304v90h417v30h-417v91zM808 331v-95
h-291v95h291zM517 208h291v-94h-291v94zM206 566h275v-90h-275v90zM785 566v-90h-268v90h268z" />
    <glyph glyph-name="uni4E8C" unicode="&#x4e8c;" 
d="M949 10v40h-898v-40h898zM865 620v40h-730v-40h730z" />
    <glyph glyph-name="uni4E8E" unicode="&#x4e8e;" 
d="M948 369v37h-413v271h341v38h-753v-38h370v-271h-443v-37h443v-302q0 -48 -20 -66.5t-79 -18.5h-135l8 -38h137q76 0 103.5 24t27.5 88v313h413z" />
    <glyph glyph-name="uni4E91" unicode="&#x4e91;" 
d="M862 -59l32 26q-133 170 -270 336l-32 -22l173 -217l-552 -25q85 94 159 197q62 86 113 179h455v38h-880v-38h377q-109 -194 -264 -353q-13 -13 -30 -20q-20 -10 -42 -15l11 -39q126 11 251 17q178 10 356 19q38 1 75 3zM860 682v38h-720v-38h720z" />
    <glyph glyph-name="uni4E92" unicode="&#x4e92;" 
d="M956 -29v38h-217l38 486h-469l31 180h579v38h-833v-38h214l-81 -479h496l-15 -187h-655v-38h912zM735 457l-18 -223h-454l38 223h434z" />
    <glyph glyph-name="uni4E94" unicode="&#x4e94;" 
d="M951 -13v37h-192l16 393h-385l47 256h478v38h-822v-38h303l-47 -256h-235v-37h229l-65 -356h-228v-37h901zM733 380l-14 -356h-400l65 356h349z" />
    <glyph glyph-name="uni4E9A" unicode="&#x4e9a;" 
d="M948 -31v37h-314v684h285v37h-836v-37h283v-684h-312v-37h894zM405 690h191v-684h-191v684zM277 173l36 19q-83 179 -173 355l-34 -18q89 -176 171 -356zM895 528l-35 18q-80 -182 -177 -355l34 -18q96 174 178 355z" />
    <glyph glyph-name="uni4E9B" unicode="&#x4e9b;" 
d="M539 573v34h-163v187h-38v-430l-149 -24v373h-38v-379l-96 -14l6 -37q240 38 479 77l-3 38q-80 -15 -161 -28v203h163zM923 502l-36 8q-2 -50 -5 -99q-3 -40 -21 -55.5t-62 -15.5h-104q-37 0 -54 16t-17 56v109q80 34 159 72q66 31 128 69l-16 36q-58 -36 -119 -66
q-75 -38 -152 -71v238h-38v-399q0 -52 22.5 -73t68.5 -21h133q56 0 79.5 20t27.5 69q4 53 6 107zM936 -33v37h-869v-37h869zM825 149v36h-648v-36h648z" />
    <glyph glyph-name="uni4EA4" unicode="&#x4ea4;" 
d="M938 -84l15 40q-133 31 -260 81q-87 35 -163 90q47 43 86 94q46 63 82 133l-36 16q-34 -67 -78 -128q-38 -49 -84 -90q-47 40 -85 88q-48 60 -85 128l-34 -18q39 -69 87 -132q39 -49 85 -91q-75 -55 -160 -92q-127 -55 -260 -91l17 -38q138 39 269 97q88 40 165 99
q78 -59 169 -98q131 -54 270 -88zM934 609v38h-868v-38h868zM396 523l-29 26q-124 -136 -279 -236l22 -34q157 105 286 244zM886 292l23 33q-147 115 -298 224l-22 -28q151 -112 297 -229zM510 665l40 13q-34 63 -70 124l-40 -13q37 -61 70 -124z" />
    <glyph glyph-name="uni4EA6" unicode="&#x4ea6;" 
d="M936 596v36h-875v-36h312q0 -104 -5 -207q-9 -186 -52.5 -275.5t-177.5 -190.5l30 -28q134 105 181.5 200t56.5 291q5 105 5 210h199v-549q0 -46 -20 -63.5t-73 -17.5h-108l8 -38h110q69 0 95 24t26 83v561h288zM893 85l36 18q-88 182 -185 360l-34 -16q96 -179 183 -362
zM248 461l-36 10q-54 -187 -155 -352l33 -18q102 170 158 360zM511 647l41 15q-36 71 -74 142l-40 -17q38 -69 73 -140z" />
    <glyph glyph-name="uni4EA7" unicode="&#x4ea7;" 
d="M929 359v37h-288q60 93 112 191l-35 16q-56 -107 -123 -207h-428v-120q0 -124 -22.5 -199t-93.5 -160l36 -21q69 87 93.5 167.5t24.5 205.5v90h724zM952 628v37h-882v-37h882zM368 426l36 20q-46 80 -97 158l-34 -18q50 -79 95 -160zM508 681l38 14q-27 57 -57 112
l-36 -15q29 -55 55 -111z" />
    <glyph glyph-name="uni4EAB" unicode="&#x4eab;" 
d="M198 563v-155h603v155h-603zM275 -34l6 -34h133q68 0 91.5 19.5t23.5 72.5v91h424v32h-424v21l280 116v32h-682v-32h610l-246 -104v-33h-444v-32h444v-79q0 -41 -17.5 -55.5t-69.5 -14.5h-129zM234 535h531v-98h-531v98zM934 656v32h-382q-30 56 -62 112l-40 -11l57 -101
h-442v-32h869z" />
    <glyph glyph-name="uni4EAC" unicode="&#x4eac;" 
d="M194 501v-251h299v-213q0 -36 -16 -49.5t-69 -13.5h-107l7 -38h112q68 0 90.5 18.5t22.5 67.5v228h272v251h-611zM234 466h531v-181h-531v181zM943 635v35h-885v-35h885zM923 -57l28 30q-131 106 -263 211l-22 -30q129 -105 257 -211zM324 162l-29 26q-49 -57 -105 -106
q-66 -57 -137 -107l25 -32q72 52 139 112q57 50 107 107zM505 683l37 14q-26 57 -57 110l-37 -16q32 -52 57 -108z" />
    <glyph glyph-name="uni4EAD" unicode="&#x4ead;" 
d="M209 567v-143h583v143h-583zM245 539h511v-88h-511v88zM812 158v34h-622v-34h312v-118q0 -40 -16.5 -55t-66.5 -15h-120l7 -36h123q65 0 88 20.5t23 75.5v128h272zM112 180h36v119h705v-121h36v154h-777v-152zM936 659v32h-384l4 1q-32 58 -67 113l-38 -12
q32 -50 60 -102h-446v-32h871z" />
    <glyph glyph-name="uni4EAE" unicode="&#x4eae;" 
d="M216 566v-156h571v156h-571zM254 538h495v-100h-495v100zM909 122l-36 7q-2 -46 -6 -91q-1 -37 -18 -50.5t-62 -13.5h-54q-38 0 -52 11.5t-14 47.5v155h-359v-52q0 -72 -45 -112t-203 -77l16 -35q162 39 216 86.5t54 117.5v39h283v-133q0 -50 20 -67t72 -17h72
q59 0 83 18t27 68zM114 170h38v117h699v-118h38v149h-775v-148zM936 660v32h-870v-32h870zM504 704l40 14l-53 95l-38 -15q27 -46 51 -94z" />
    <glyph glyph-name="uni4EB2" unicode="&#x4eb2;" 
d="M945 409v36h-315q60 80 114 165l-34 15q-58 -93 -125 -180h-532v-36h440v-153h-407v-35h407v-171q0 -46 -14.5 -59.5t-67.5 -13.5h-92l8 -38h97q66 0 87 19t21 78v185h383v35h-383v153h413zM894 641v36h-339l-68 132l-39 -10q33 -61 64 -122h-406v-36h788zM336 145
l-26 26q-113 -110 -245 -195l20 -32q135 89 251 201zM904 -46l22 32q-127 90 -258 175l-21 -30q131 -85 257 -177zM356 463l33 20q-49 72 -102 141l-32 -18q52 -70 101 -143z" />
    <glyph glyph-name="uni4EBA" unicode="&#x4eba;" 
d="M904 -82l28 35q-194 140 -299.5 310.5t-119.5 396.5v10l3 117h-40l-3 -103q-2 -235 -93 -402.5t-310 -322.5l29 -33q179 128 274 267t125 308q37 -172 137.5 -313t268.5 -270z" />
    <glyph glyph-name="uni4EBF" unicode="&#x4ebf;" 
d="M405 707v-38h379q-278 -338 -344 -447.5t-66 -166.5q0 -47 31.5 -71.5t90.5 -24.5h280q74 0 104.5 24.5t34.5 96.5l8 162l-40 8q-2 -78 -6 -156q-3 -58 -25.5 -77.5t-84.5 -19.5h-263q-39 0 -62.5 13.5t-23.5 50.5q0 48 66 154.5t354 452.5v39h-433zM318 783l-36 12
q-46 -140 -113 -270q-53 -104 -123 -197l22 -43q73 102 131 213v-593h37v668q46 103 82 210z" />
    <glyph glyph-name="uni4EC0" unicode="&#x4ec0;" 
d="M634 -100h38v504h287v39h-287v355h-38v-355h-295v-39h295v-504zM337 788l-37 14q-50 -139 -121 -269q-59 -108 -137 -202l23 -38q85 104 149 221v-611h39v685q47 98 84 200z" />
    <glyph glyph-name="uni4EC5" unicode="&#x4ec5;" 
d="M360 710v-38h466q-24 -135 -78 -260q-46 -101 -117 -187q-64 81 -108 175q-51 115 -77 239l-38 -10q27 -129 81 -250q46 -99 114 -185q-58 -62 -125 -115q-89 -70 -187 -129l26 -36q98 60 188 131q67 54 126 117q55 -62 119 -116q85 -71 178 -133l24 36q-92 60 -177 130
q-62 53 -117 114q76 91 125 199q58 135 85 280v38h-508zM321 781l-38 11q-40 -120 -99 -233q-61 -120 -144 -227l18 -42q78 97 139 206v-598h38v672q50 103 86 211z" />
    <glyph glyph-name="uni4EC7" unicode="&#x4ec7;" 
d="M938 203l-32 6l-7 -166q-1 -34 -11.5 -44t-45.5 -10h-33q-30 0 -40.5 10.5t-10.5 40.5v537h-235q2 109 4 219h-37l-3 -219h-168v-36h168q0 -16 -1 -32q-6 -232 -46 -340t-165 -229l30 -26q128 124 170.5 239.5t46.5 354.5q0 17 1 33h197v-512q0 -44 18.5 -60.5
t60.5 -16.5h47q49 0 66.5 15.5t19.5 62.5q4 86 6 173zM300 784l-38 10q-40 -137 -103 -264q-50 -104 -118 -196l22 -37q71 95 124 201v-597h38v678q43 101 75 205z" />
    <glyph glyph-name="uni4ECA" unicode="&#x4eca;" 
d="M546 345l30 26q-71 89 -146 175l-28 -23q75 -87 144 -178zM483 -73l38 -21q80 83 151 175q63 81 113 171v36h-651v-38h599q-46 -85 -105 -161q-67 -86 -145 -162zM936 387l20 36q-127 62 -236 151q-112 91 -191 212h-55q-81 -118 -193 -209q-110 -89 -237 -154l21 -36
q125 66 235 155q113 91 201 206q87 -119 202 -211q108 -88 233 -150z" />
    <glyph glyph-name="uni4ECB" unicode="&#x4ecb;" 
d="M931 350l22 38q-143 68 -247.5 164t-178.5 225h-55q-70 -124 -175 -219.5t-254 -173.5l22 -37q125 66 233 158q116 101 201 229q162 -253 432 -384zM355 441h-40v-139q0 -138 -40.5 -211t-168.5 -159l26 -32q137 88 180 172t43 233v136zM644 -94h40v537h-40v-537z" />
    <glyph glyph-name="uni4ECD" unicode="&#x4ecd;" 
d="M597 -16l7 -37h125q80 0 108.5 23t32.5 93l19 355h-130l60 260v33h-458v-36h116q-1 -346 -33 -474.5t-160 -268.5l31 -26q130 143 164 281t35 488h265l-60 -257v-36h130q-7 -152 -17 -303q-3 -59 -26 -77t-89 -18h-120zM319 770l-38 12q-45 -136 -112 -262
q-54 -100 -125 -188l19 -42q73 87 128 186v-576h38v648q52 108 90 222z" />
    <glyph glyph-name="uni4ECE" unicode="&#x4ece;" 
d="M923 -91l30 30q-132 135 -201 295.5t-77 396.5q0 19 2 37q2 62 3 124h-40q-1 -62 -3 -124q-8 -238 -64.5 -394.5t-235.5 -336.5l31 -29q139 142 202.5 269.5t86.5 279.5q25 -175 91 -304t175 -244zM320 791h-40q-2 -71 -5 -141q-7 -249 -52.5 -387t-171.5 -311l36 -22
q48 66 90 136q37 62 64 129q48 124 61 256q84 -117 163 -237l32 26q-92 136 -189 269q5 70 7 140q3 71 5 142z" />
    <glyph glyph-name="uni4ED6" unicode="&#x4ed6;" 
d="M926 167l-38 6q-1 -55 -4 -109q-3 -48 -22.5 -64t-89.5 -16h-239q-61 0 -82 19t-21 74v358l174 54v-396h36v407l186 58q-4 -124 -10 -248q-1 -42 -16 -55t-66 -13h-52l7 -36h55q61 0 83.5 18t25.5 70q5 156 11 312l-224 -69v258h-36v-269l-174 -53v222h-36v-233l-120 -36
l8 -36l112 34v-357q0 -69 28 -94t99 -25h267q77 0 102.5 20t29.5 78q5 60 6 121zM190 -98h36v665q46 99 80 203l-36 8q-37 -118 -92 -228q-57 -115 -136 -217l19 -36q72 95 129 199v-594z" />
    <glyph glyph-name="uni4ED8" unicode="&#x4ed8;" 
d="M772 786h-40v-212h-413v-38h413v-480q0 -46 -19 -63.5t-78 -17.5h-126l8 -40h128q74 0 100.5 23.5t26.5 85.5v492h182v38h-182v212zM201 -93h40v672q43 97 79 197l-40 10q-47 -138 -115 -268q-54 -102 -125 -192l26 -35q77 97 135 207v-591zM552 177l33 22
q-80 119 -163 235l-32 -20q82 -118 162 -237z" />
    <glyph glyph-name="uni4EE3" unicode="&#x4ee3;" 
d="M946 468l-2 38l-363 -32q-7 64 -10 128q-4 97 -8 195h-39l9 -194q4 -67 11 -133l-241 -21l3 -38l242 21q13 -123 44 -243q14 -51 34 -100q17 -38 40 -73q35 -48 63.5 -66t59.5 -18q32 0 58 21.5t43 83.5q18 66 31 134l-33 14q-12 -62 -28 -123q-14 -55 -31 -70.5
t-40 -15.5q-22 0 -43 13t-47 49q-22 31 -36 66q-20 46 -33 95q-31 117 -45 237zM212 -96h38v661q50 102 87 210l-38 10q-48 -142 -119 -274q-58 -107 -134 -201l18 -40q84 104 148 222v-588zM841 574l23 28q-83 74 -169 146l-21 -26q85 -72 167 -148z" />
    <glyph glyph-name="uni4EE4" unicode="&#x4ee4;" 
d="M694 -88l20 37l-170 82q142 114 259 254v41h-671v-39h615q-51 -64 -111 -121q-63 -61 -132 -116q-132 62 -265 123l-18 -36q239 -107 473 -225zM935 388l21 39q-127 61 -238 148q-110 87 -190 203h-55q-84 -115 -196 -203q-109 -86 -234 -147l22 -38q124 64 234 150
q112 88 201 200q88 -115 202 -204q109 -86 233 -148zM546 379l30 25q-67 81 -135 160l-32 -23q71 -79 137 -162z" />
    <glyph glyph-name="uni4EE5" unicode="&#x4ee5;" 
d="M918 -57l32 30l-219 243q30 62 45 129q19 90 25 182q6 102 4 203v41h-38q2 -121 -6 -242q-16 -213 -92 -336.5t-306 -242.5l24 -34q123 64 200.5 126.5t122.5 135.5q105 -117 208 -235zM499 281l-23 32l-295 -240v675h-39v-676q0 -16 -5 -32t-36 -33l27 -32
q181 158 371 306zM514 492l34 18q-81 135 -164 268l-31 -18q83 -133 161 -268z" />
    <glyph glyph-name="uni4EEA" unicode="&#x4eea;" 
d="M933 -90l20 36q-92 51 -175 114q-66 51 -123 111q85 96 134 222t85 315l-38 8q-32 -181 -78 -302t-129 -214q-80 94 -132 204q-64 139 -94 289l-36 -12q32 -156 99 -299q54 -114 136 -210q-58 -57 -124 -104q-92 -64 -190 -118l22 -34q100 55 193 120q67 48 126 107
q59 -62 126 -115q85 -65 178 -118zM318 780l-39 10q-40 -139 -107 -268q-56 -108 -136 -201l22 -42q78 92 136 197v-573h38v646q52 112 86 231zM643 543l36 18q-55 113 -114 223l-34 -17q59 -111 112 -224z" />
    <glyph glyph-name="uni4EEC" unicode="&#x4eec;" 
d="M644 -30l6 -36h112q72 0 97 22.5t25 97.5v660h-303v-36h267v-615q0 -58 -18.5 -75.5t-77.5 -17.5h-108zM180 -93h36v673q44 101 77 206l-36 9q-41 -135 -103 -262q-48 -102 -113 -195l19 -36q67 96 120 201v-596zM379 -87h37v702h-37v-702zM523 613l28 25
q-65 77 -134 152l-26 -22q68 -76 132 -155z" />
    <glyph glyph-name="uni4EF6" unicode="&#x4ef6;" 
d="M924 536v36h-249v229h-38v-229h-184q25 81 43 163l-38 10q-43 -194 -123 -376l40 -13q38 88 67 180h195v-271h-329v-36h329v-331h38v331h285v36h-285v271h249zM300 782l-38 12q-36 -123 -91 -240q-56 -124 -135 -234l17 -40q81 105 140 224v-604h38v686q40 96 69 196z
" />
    <glyph glyph-name="uni4EF7" unicode="&#x4ef7;" 
d="M311 777l-36 10q-44 -133 -110 -257q-57 -107 -130 -204l20 -36q74 97 133 203v-590h37v662q50 103 86 212zM938 386l21 34q-106 61 -185 151t-129 204h-54q-42 -100 -110 -184q-87 -103 -198 -181l22 -34q95 69 175 156q82 92 138 201q60 -115 148 -209q77 -81 172 -138
zM501 440h-37v-139q0 -136 -32 -209t-131 -166l33 -22q101 99 134 174.5t33 222.5v139zM730 -96h37v534h-37v-534z" />
    <glyph glyph-name="uni4EFB" unicode="&#x4efb;" 
d="M908 703l-8 38q-124 -25 -250 -40q-149 -18 -299 -27l4 -38q130 7 260 22v-279h-304v-38h304v-327h-278v-38h592v38h-274v327h302v38h-302v284q127 15 253 40zM316 779l-37 10q-40 -121 -98 -234q-59 -118 -141 -221l18 -38q78 95 137 203v-594h39v670q48 99 82 204z" />
    <glyph glyph-name="uni4EFD" unicode="&#x4efd;" 
d="M543 -13l7 -38h114q67 0 99.5 26t37.5 99q9 159 18 319h-459v-38h122l-3 -40q-10 -138 -51.5 -215t-156.5 -163l32 -26q118 93 161 176.5t54 227.5l3 40h257q-7 -132 -17 -264q-4 -61 -26 -82.5t-83 -21.5h-109zM188 -96h37v663q45 103 77 210l-36 11q-42 -137 -105 -264
q-53 -106 -124 -199l18 -38q76 95 133 203v-586zM918 361l30 26q-93 80 -152 178.5t-98 231.5l-38 -8q34 -120 94 -228q66 -113 164 -200zM562 756l-38 12q-79 -216 -242 -378l27 -25q167 169 253 391z" />
    <glyph glyph-name="uni4EFF" unicode="&#x4eff;" 
d="M562 -9l7 -38h113q81 0 111.5 23t34.5 96q11 166 18 333h-323l3 52q3 69 5 139h424v38h-258l-78 171l-38 -8q38 -81 74 -163h-332v-38h168q-2 -68 -5 -135q-9 -207 -42.5 -308t-152.5 -215l32 -28q105 104 145.5 200t52.5 257h285q-6 -142 -16 -283q-4 -56 -29 -74.5
t-93 -18.5h-106zM311 780l-40 10q-40 -120 -96 -234q-59 -119 -138 -225l18 -38q75 95 133 202v-588h38v662q48 103 85 211z" />
    <glyph glyph-name="uni4F01" unicode="&#x4f01;" 
d="M846 261v38h-309v232h-38v-529h-248v378h-38v-378h-166v-38h893v38h-403v259h309zM937 387l21 36q-124 65 -233 152q-111 88 -196 200h-55q-39 -53 -85 -99q-53 -52 -111 -98q-111 -88 -236 -155l21 -36q123 68 233 155q113 87 205 195q93 -110 206 -199
q109 -86 230 -151z" />
    <glyph glyph-name="uni4F10" unicode="&#x4f10;" 
d="M945 527l-4 37l-384 -46l-7 77q-8 101 -12 202h-38q4 -99 13 -198q3 -43 8 -85l-213 -25l4 -37l213 25q10 -89 28 -176q12 -62 31 -122q-131 -90 -278 -150l18 -36q145 60 274 149q22 -60 57 -114q38 -57 74.5 -78t66.5 -21q32 0 59 22.5t43 81.5q19 67 31 135l-32 14
q-12 -64 -29 -127q-13 -49 -31 -67.5t-41 -18.5q-22 0 -49 16t-56 57q-38 58 -61 123q143 107 246 252l-30 22q-95 -137 -229 -237q-20 66 -33 133q-13 73 -22 147zM203 -97h38v653q52 106 90 217l-38 12q-47 -140 -118 -270q-56 -104 -131 -195l18 -38q80 94 141 202v-581z
M813 601l24 28q-87 73 -179 141l-20 -28q90 -67 175 -141z" />
    <glyph glyph-name="uni4F17" unicode="&#x4f17;" 
d="M923 397l20 37q-137 65 -256 161q-90 74 -157 171h-55q-76 -109 -182 -190q-110 -83 -234 -142l20 -37q123 61 233 143q107 81 190 186q85 -107 194 -190q107 -80 227 -139zM918 -80l27 32q-123 87 -192 192t-86 241q0 1 0.5 2t0.5 2q4 47 7 95h-40q-2 -47 -6 -94
q-10 -141 -70.5 -242.5t-196.5 -210.5l32 -30q110 93 172.5 180t86.5 196q29 -111 96.5 -200t168.5 -163zM334 484h-39l-7 -89q-10 -139 -60.5 -238t-165.5 -212l34 -27q95 98 147.5 186.5t72.5 194.5q77 -82 151 -168l29 28q-85 95 -173 187q3 23 5 47z" />
    <glyph glyph-name="uni4F18" unicode="&#x4f18;" 
d="M573 797h-39q-1 -111 -4 -221q-1 -13 -1 -26h-219v-38h217q-12 -193 -64.5 -315.5t-189.5 -256.5l32 -26q140 142 195 270.5t65 327.5h375v38h-373q1 11 1 23q3 112 5 224zM192 -97h38v663q49 104 84 214l-38 10q-43 -139 -110 -268q-52 -102 -124 -191l18 -40
q75 93 132 199v-587zM922 205l-36 8l-4 -157q-1 -45 -15 -58.5t-58 -13.5h-51q-37 0 -53.5 15.5t-16.5 59.5v399h-38v-409q0 -59 24 -80.5t72 -21.5h64q60 0 83 18t25 80zM837 598l25 26q-75 71 -151 139l-23 -25q76 -69 149 -140z" />
    <glyph glyph-name="uni4F19" unicode="&#x4f19;" 
d="M922 -81l29 35q-149 105 -225 229.5t-87 316.5v292h-41v-264q-1 -204 -74 -336.5t-243 -249.5l30 -32q126 91 205 196.5t107 243.5q29 -136 102.5 -238t196.5 -193zM306 769l-38 9q-37 -121 -94 -234q-59 -120 -141 -224l24 -38q74 92 129 196v-580h38v656q48 105 82 215
zM917 615l-36 18q-73 -142 -156 -279l34 -18q83 137 158 279zM480 331l34 20q-76 141 -158 279l-34 -18q82 -139 158 -281z" />
    <glyph glyph-name="uni4F1A" unicode="&#x4f1a;" 
d="M829 -88l30 26q-106 121 -215 241l-30 -22l123 -140l-488 -16q62 61 120 126q47 53 89 110h469v36h-851v-36h334q-92 -121 -206 -220q-12 -9 -25 -16q-20 -8 -40 -14l8 -35q310 23 621 31q31 -35 61 -71zM935 417l17 36q-122 58 -230 139q-109 80 -192 187h-55
q-82 -107 -190 -188q-110 -82 -234 -141l17 -36q123 60 234 142t201 187q91 -105 203 -187q109 -80 229 -139zM776 436v34h-547v-34h547z" />
    <glyph glyph-name="uni4F1E" unicode="&#x4f1e;" 
d="M949 121v38h-428v417h-40v-417h-426v-38h426v-223h40v223h428zM946 427l20 36q-125 59 -238 139q-111 78 -200 180h-54q-41 -49 -89 -92q-53 -48 -112 -90q-110 -79 -233 -137l18 -38q125 61 238 142q111 80 205 179q95 -100 208 -179q113 -80 237 -140zM810 437l-32 24
q-74 -99 -155 -191l30 -27q83 93 157 194zM347 244l32 26q-77 96 -155 191l-31 -23q78 -96 154 -194z" />
    <glyph glyph-name="uni4F1F" unicode="&#x4f1f;" 
d="M560 -100h38v340h252q-4 -58 -10 -116q-4 -39 -22.5 -55.5t-74.5 -16.5h-79l7 -37h88q58 0 87 21.5t33 76.5q7 81 11 163h-292v152h293v35h-293v154h328v36h-328v147h-38v-147h-233v-36h233v-154h-209v-35h209v-152h-265v-36h265v-340zM197 -96h38v665q50 106 87 216
l-38 8q-47 -141 -117 -273q-56 -105 -129 -199l16 -40q82 100 143 214v-591z" />
    <glyph glyph-name="uni4F20" unicode="&#x4f20;" 
d="M851 -95l16 36q-85 40 -171 78q51 67 97 137q30 44 55 91v34h-354q22 69 40 140h424v35h-414q20 76 36 152h341v35h-334q17 78 30 156l-38 4q-13 -80 -30 -160h-192v-35h184q-17 -76 -37 -152h-201v-35h191q-19 -73 -42 -144v-30h350q-28 -54 -62 -104q-37 -55 -77 -108
q-130 59 -261 117l-14 -33q233 -104 463 -214zM314 784l-36 10q-42 -121 -100 -236q-59 -117 -139 -221l18 -38q78 97 138 207v-606h36v677q47 101 83 207z" />
    <glyph glyph-name="uni4F24" unicode="&#x4f24;" 
d="M571 -18l7 -36h132q84 0 111.5 23t31.5 91q11 164 18 329h-294q5 77 8 155h-38q-3 -78 -8 -155h-206v-37h204q-11 -151 -57 -234.5t-192 -187.5l30 -27q152 112 198.5 202t58.5 247h256q-6 -138 -16 -276q-4 -58 -23 -76t-90 -18h-131zM322 781l-38 11
q-47 -137 -115 -265q-54 -102 -125 -193l20 -38q74 94 131 199v-593h38v666q50 104 89 213zM567 787l-38 10q-75 -182 -206 -329l32 -21q70 79 126 169h470v37h-449q37 65 65 134z" />
    <glyph glyph-name="uni4F2A" unicode="&#x4f2a;" 
d="M611 794h-38l-13 -238q0 -4 -1 -8h-255v-38h253q-16 -201 -75 -311t-211 -253l30 -27q152 143 213 261.5t79 329.5h254q-5 -129 -11 -259q-3 -84 -10 -169q-4 -57 -29 -76.5t-89 -19.5h-115l8 -38h119q74 0 106 24.5t37 93.5q14 241 22 482h-289q1 5 1 10q8 118 14 236z
M301 777l-36 8q-40 -136 -103 -262q-51 -103 -120 -194l19 -36q76 99 132 210v-599h36v675q42 97 72 198zM744 181l27 22q-73 84 -148 167l-25 -23zM469 603l26 22q-59 69 -120 136l-24 -20q60 -68 118 -138z" />
    <glyph glyph-name="uni4F30" unicode="&#x4f30;" 
d="M816 -103h39v430h-207v235h296v37h-296v195h-38v-195h-288v-37h288v-235h-209v-430h38v82h377v-82zM439 290h377v-275h-377v275zM305 779l-38 11q-39 -120 -94 -233q-55 -116 -133 -219l18 -39q73 92 129 196v-595h38v672q46 101 80 207z" />
    <glyph glyph-name="uni4F34" unicode="&#x4f34;" 
d="M957 161v36h-301v175h261v36h-261v394h-38v-394h-250v-36h250v-175h-307v-36h307v-263h38v263h301zM196 -96h38v665q47 100 82 204l-38 10q-39 -119 -96 -230q-62 -119 -146 -223l22 -36q77 95 138 202v-592zM906 716l-34 16q-56 -117 -120 -230l34 -16q63 114 120 230z
M490 489l34 16q-58 112 -121 222l-32 -16q62 -109 119 -222z" />
    <glyph glyph-name="uni4F38" unicode="&#x4f38;" 
d="M373 68h35v81h203v-249h36v249h203v-81h36v572h-239v160h-36v-160h-238v-572zM181 -97h36v660q50 108 84 222l-38 10q-40 -136 -104 -262q-53 -104 -124 -197l22 -34q69 91 124 190v-589zM408 604h203v-192h-203v192zM850 604v-192h-203v192h203zM408 376h203v-192h-203
v192zM647 376h203v-192h-203v192z" />
    <glyph glyph-name="uni4F3C" unicode="&#x4f3c;" 
d="M922 -64l30 24q-88 123 -180 243q28 66 40 136q17 102 19 204q5 111 5 223h-36q0 -112 -5 -223q-9 -242 -73 -358.5t-263 -247.5l25 -30q94 61 175 137q57 55 96 124q85 -115 167 -232zM301 781l-36 10q-37 -121 -92 -235q-56 -119 -135 -225l24 -38q74 99 129 210v-600
h36v677q43 98 74 201zM651 289l-18 36l-201 -174v559h-36v-566q0 -7 -3.5 -21.5t-26.5 -29.5l27 -28q125 116 258 224zM653 530l30 20q-65 111 -132 220l-30 -17q67 -111 132 -223z" />
    <glyph glyph-name="uni4F46" unicode="&#x4f46;" 
d="M404 715v-526h462v526h-462zM442 678h386v-208h-386v208zM442 226v208h386v-208h-386zM188 -105h38v672q47 104 83 213l-40 8q-39 -122 -94 -237q-57 -119 -136 -224l16 -42q76 96 133 204v-594zM958 -34v38h-659v-38h659z" />
    <glyph glyph-name="uni4F48" unicode="&#x4f48;" 
d="M413 -11h36v376h181v-466h36v466h186v-254q0 -34 -15 -48t-53 -14h-64l6 -34h70q50 0 71 19.5t21 64.5v300h-222v143h-36v-143h-184q63 104 103 219h412v35h-400q22 69 38 140l-35 6q-16 -74 -39 -146h-204v-35h192q-39 -108 -99 -207q-71 -113 -162 -210l23 -28
q76 81 138 173v-357zM183 -100h36v662q49 106 85 217l-36 10q-37 -119 -91 -231q-58 -120 -138 -226l22 -36q68 93 122 195v-591z" />
    <glyph glyph-name="uni4F4D" unicode="&#x4f4d;" 
d="M189 -92h38v674q46 100 79 205l-40 8q-38 -122 -94 -237q-59 -121 -142 -228l22 -34q78 98 137 209v-597zM953 -31v36h-269q81 245 153 493l-38 11q-69 -254 -153 -504h-350v-36h657zM934 581v36h-608v-36h608zM523 99l36 10q-55 198 -116 395l-36 -10q59 -197 116 -395z
M625 639l40 11q-31 79 -67 156l-40 -10q37 -77 67 -157z" />
    <glyph glyph-name="uni4F4E" unicode="&#x4f4e;" 
d="M939 148l-32 11q-7 -54 -20 -106q-7 -35 -19.5 -48t-23.5 -11q-15 1 -33.5 20t-34.5 59q-22 59 -34 121q-18 91 -27 184h228v36h-231q-11 132 -13 264q102 14 202 35l-8 37q-246 -49 -496 -65v-632q0 -14 -4 -26.5t-28 -23.5l20 -31q129 92 262 178l-11 36l-201 -135v327
h243q9 -94 27 -187q13 -64 35 -126q24 -63 51.5 -91t52.5 -28q23 -1 41 17t29 64q15 60 25 121zM435 649q114 9 227 24q3 -130 13 -259h-240v235zM185 -97h37v670q49 105 84 215l-38 11q-43 -138 -109 -266q-53 -104 -125 -196l17 -38q76 94 134 201v-597zM637 -95l28 20
q-51 64 -105 126l-28 -18q54 -63 105 -128z" />
    <glyph glyph-name="uni4F4F" unicode="&#x4f4f;" 
d="M894 285v37h-255v253h288v36h-606v-36h279v-253h-255v-37h255v-283h-302v-37h652v37h-311v283h255zM304 771l-38 12q-44 -136 -110 -263q-51 -100 -120 -190l22 -36q72 92 127 195v-585h37v660q47 101 82 207zM639 639l36 18q-41 76 -83 151l-34 -17q42 -75 81 -152z" />
    <glyph glyph-name="uni4F53" unicode="&#x4f53;" 
d="M587 -102h36v188h189v36h-189v433q101 -272 314 -468l28 34q-111 98 -196 220q-74 108 -121 230h286v38h-311v189h-36v-189h-287v-38h262q-45 -120 -115 -226q-85 -124 -196 -226l22 -34q112 107 199 236q71 109 115 232v-431h-191v-36h191v-188zM181 -95h36v654
q48 109 82 223l-38 6q-36 -122 -90 -237q-55 -120 -133 -225l16 -42q73 94 127 200v-579z" />
    <glyph glyph-name="uni4F55" unicode="&#x4f55;" 
d="M376 501v-349h277v349h-277zM410 466h209v-280h-209v280zM957 671v36h-625v-36h478v-606q0 -57 -20 -75t-84 -18h-126l7 -37h129q80 0 106 24.5t26 95.5v616h109zM181 -99h38v668q46 103 77 211l-37 10q-37 -123 -92 -238q-56 -121 -135 -228l21 -34q74 94 128 200v-589z
" />
    <glyph glyph-name="uni4F59" unicode="&#x4f59;" 
d="M920 256v38h-393v158h224v36h-495v-36h231v-158h-407v-38h407v-203q0 -47 -17.5 -63.5t-76.5 -16.5h-100l8 -39h107q71 0 95 21.5t24 84.5v216h393zM937 421l19 36q-124 56 -235 134q-109 77 -190 183h-61q-81 -105 -189 -183q-111 -77 -234 -132l18 -36q124 57 235 135
q111 79 200 182q90 -103 203 -182q111 -79 234 -137zM909 -50l26 30q-119 108 -247 206l-23 -28q126 -100 244 -208zM321 167l-30 24q-98 -126 -225 -223l26 -30q127 102 229 229z" />
    <glyph glyph-name="uni4F5C" unicode="&#x4f5c;" 
d="M911 126v38h-305v197h283v38h-283v196h333v38h-444q35 74 62 151l-37 10q-41 -117 -102 -226q-51 -89 -117 -168l26 -29q87 103 149 224h92v-698h38v229h305zM191 -97h39v662q47 99 82 202l-39 11q-40 -119 -98 -230q-59 -114 -140 -215l22 -35q75 91 134 193v-588z" />
    <glyph glyph-name="uni4F60" unicode="&#x4f60;" 
d="M294 776l-38 8q-35 -118 -88 -229q-54 -114 -129 -217l22 -30q67 89 119 187v-591h38v669q44 99 76 203zM790 446l36 -12l82 177v36h-423q31 68 54 139l-38 7q-65 -200 -187 -371l32 -20q70 99 122 209h398zM651 514h-37v-476q0 -38 -16.5 -52t-62.5 -14h-97l7 -37h103
q59 0 81 19.5t22 70.5v489zM484 356l-34 9q-63 -188 -169 -357l36 -14q55 92 99 189q39 85 68 173zM916 -7l34 16q-80 177 -165 353l-33 -14q84 -176 164 -355z" />
    <glyph glyph-name="uni4F73" unicode="&#x4f73;" 
d="M953 394v36h-302v177h252v35h-252v152h-38v-152h-254v-35h254v-177h-312v-36h652zM954 -39v36h-303v193h252v35h-252v121h-38v-121h-254v-35h254v-193h-318v-36h659zM304 777l-37 8q-33 -115 -85 -223q-60 -124 -141 -235l18 -44q74 104 135 216v-602h38v680
q44 97 72 200z" />
    <glyph glyph-name="uni4F75" unicode="&#x4f75;" 
d="M946 266v37h-167v260h148v36h-219q59 88 116 177l-34 19q-58 -100 -123 -196h-332v-36h144v-189q0 -36 -1 -71h-181v-37h179q-7 -123 -42.5 -192t-130.5 -156l32 -23q95 88 133 163t45 208h228v-368h38v368h167zM516 378v185h225v-260h-226q1 37 1 75zM304 772l-36 12
q-38 -128 -101 -247q-55 -105 -131 -198l16 -44q76 94 135 200v-594h38v667q48 99 79 204zM529 624l30 22q-52 78 -107 155l-30 -18q55 -79 107 -159z" />
    <glyph glyph-name="uni4F7F" unicode="&#x4f7f;" 
d="M638 795h-36v-137h-298v-34h298v-133h-245v-225h245v-2q0 -60 -11 -105t-41 -80q-98 59 -163 154l-27 -20q65 -97 164 -160q-42 -33 -91 -53q-81 -33 -166 -54l18 -36q91 24 177 61q54 24 98 62q75 -39 156 -61q116 -31 235 -45l10 38q-114 12 -226 40q-78 20 -150 55
q30 38 41.5 88t11.5 116v2h242v225h-242v133h303v34h-303v137zM173 -104h36v671q43 105 73 214l-36 9q-39 -138 -99 -268q-46 -101 -110 -191l22 -32q65 90 114 189v-592zM393 458h209v-158h-209v158zM844 458v-158h-206v158h206z" />
    <glyph glyph-name="uni4F86" unicode="&#x4f86;" 
d="M927 -24l18 36q-73 32 -143 72q-62 35 -119 79q-94 72 -163 168v293h390v35h-390v143h-38v-143h-388v-35h388v-295q-78 -111 -187 -193q-110 -82 -235 -137l18 -34q132 61 249 149q88 68 155 157v-372h38v373q68 -87 158 -153q117 -83 249 -143zM879 265l23 26
q-86 84 -176 164q24 48 42 99l-32 10q-49 -137 -153 -240l26 -23q57 57 101 126q86 -80 169 -162zM384 301l24 23q-65 71 -134 138q19 43 33 88l-34 8q-25 -83 -70 -156q-43 -68 -101 -125l26 -23q81 78 132 178q64 -64 124 -131z" />
    <glyph glyph-name="uni4F8B" unicode="&#x4f8b;" 
d="M449 226l19 30q-50 50 -103 97q24 60 45 121h153q-28 -169 -86.5 -294.5t-200.5 -250.5l26 -26q137 123 200 248t96 318v41h-177q26 88 42 178h189v35h-340v-35h115q-24 -132 -70 -257q-38 -106 -95 -204l26 -24q35 57 62 117q51 -46 99 -94zM174 -100h34v684
q39 98 67 200l-37 7q-33 -119 -82 -232q-49 -118 -117 -225l22 -32q65 96 113 201v-603zM885 786h-34v-736q0 -46 -18.5 -63.5t-71.5 -17.5h-107l6 -34h109q67 0 91.5 22.5t24.5 82.5v746zM694 122h34v560h-34v-560z" />
    <glyph glyph-name="uni4F9B" unicode="&#x4f9b;" 
d="M947 233v36h-170v285h147v36h-147v207h-38v-207h-244v207h-38v-207h-137v-36h137v-285h-176v-36h666zM495 554h244v-285h-244v285zM177 -93h38v673q46 103 80 210l-37 11q-43 -137 -107 -265q-51 -100 -120 -189l18 -40q72 93 128 196v-596zM551 142l-29 23
q-104 -119 -227 -218l26 -28q124 102 230 223zM896 -79l28 28q-106 110 -217 214l-26 -26q110 -105 215 -216z" />
    <glyph glyph-name="uni4F9D" unicode="&#x4f9d;" 
d="M669 50l-8 37l-182 -94v371q60 75 103 161q44 -205 119 -327.5t217 -219.5l28 33q-162 101 -247 272q101 76 195 160l-24 28q-89 -83 -186 -157q-24 55 -41 112q-21 75 -35 151l11 27h316v36h-621v-36h265q-55 -126 -142 -231q-83 -99 -188 -175l25 -32q91 69 167 153
v-313q0 -15 -5 -27.5t-34 -25.5l17 -30q123 67 250 127zM292 787l-38 8q-41 -136 -104 -264q-50 -100 -119 -190l20 -36q69 90 122 190v-586h38v663q47 105 81 215zM612 656l35 15q-32 69 -68 136l-34 -16q37 -66 67 -135z" />
    <glyph glyph-name="uni4FA0" unicode="&#x4fa0;" 
d="M925 617v36h-284v145h-37v-145h-283v-36h283v-272q0 -19 -2 -37h-310v-36h305q-13 -73 -76 -155.5t-226 -170.5l22 -32q148 82 216.5 160.5t90.5 150.5q38 -103 111.5 -178.5t189.5 -132.5l21 36q-124 56 -195.5 134t-103.5 188h302v36h-310q2 17 2 34v275h284zM305 777
l-36 10q-38 -119 -94 -231q-58 -118 -137 -223l19 -38q71 93 127 197v-592h36v663q49 104 85 214zM480 359l30 16q-57 95 -121 185l-30 -16q62 -91 121 -185zM884 547l-30 16q-58 -96 -123 -187l30 -16q64 92 123 187z" />
    <glyph glyph-name="uni4FA6" unicode="&#x4fa6;" 
d="M377 127h37v350h400v-350h37v384h-236v143h319v34h-319v118h-38v-295h-200v-384zM180 -92h37v668q47 103 81 211l-38 10q-37 -119 -91 -231q-56 -117 -133 -220l20 -37q70 91 124 193v-594zM911 -79l23 32q-158 105 -318 206q17 54 17 110v140h-36v-134
q-3 -115 -59.5 -182t-256.5 -137l17 -34q134 48 205 96t100 108q156 -99 308 -205z" />
    <glyph glyph-name="uni4FA7" unicode="&#x4fa7;" 
d="M322 157h30v526h214v-523h30v559h-274v-562zM253 784l-35 8q-28 -111 -71 -216q-44 -110 -107 -211l26 -26q55 88 97 183v-618h32v697q34 90 58 183zM474 611h-30v-267q0 -157 -39.5 -231.5t-164.5 -165.5l22 -26q75 55 120.5 106t67.5 118q88 -92 172 -188l27 26
q-93 100 -189 198q16 77 14 155v275zM883 780h-32v-733q0 -43 -16 -57t-64 -14h-83l7 -34h82q62 0 84 18.5t22 74.5v745zM708 130h30v564h-30v-564z" />
    <glyph glyph-name="uni4FAE" unicode="&#x4fae;" 
d="M935 64v34h-104l7 184h119v34h-118l8 214h-449l-24 -214h-105v-34h101l-25 -218h446q0 -12 -1 -24q-2 -44 -23.5 -60.5t-74.5 -16.5h-143l6 -34h148q68 0 94.5 22t30.5 82q1 15 1 31h106zM793 98h-408l21 184h396q-4 -92 -9 -184zM430 496h381l-8 -180h-393zM283 783
l-37 9q-35 -116 -86 -226q-51 -112 -120 -214l20 -38q66 92 116 194v-607h36v686q40 96 71 196zM520 791l-34 10q-74 -164 -195 -298l29 -24q73 82 130 176h483v34h-463q28 50 50 102zM652 131l19 26q-64 52 -132 99l-18 -25q67 -47 131 -100zM667 347l20 26q-63 51 -128 98
l-19 -25q65 -48 127 -99z" />
    <glyph glyph-name="uni4FAF" unicode="&#x4faf;" 
d="M905 352v33h-459q24 43 43 88l-34 11q-50 -119 -132 -218l31 -19q40 50 73 105h185q1 -67 -2 -134q0 -4 -1 -7h-322v-33h315l3 -8q-15 -71 -84.5 -123t-232.5 -105l17 -34q147 49 221.5 99.5t101.5 115.5q41 -71 118.5 -122t192.5 -82l16 36q-130 33 -205.5 88.5
t-106.5 134.5h310v33h-307q1 5 1 11q3 65 3 130h255zM180 -102h37v650q54 114 90 235l-37 9q-37 -121 -93 -234q-56 -119 -136 -223l21 -36q67 83 118 177v-578zM957 516v33h-147l14 178h-440v-33h400l-10 -145h-468v-33h651z" />
    <glyph glyph-name="uni4FB5" unicode="&#x4fb5;" 
d="M379 246v-30h408q-69 -101 -174 -162q-100 61 -164 159l-28 -19q65 -95 160 -158q-68 -33 -141 -54q-78 -23 -157 -39l14 -33q97 19 190 51q67 22 129 55q63 -33 130 -53q98 -29 198 -46l12 34q-94 15 -185 39q-63 17 -122 45q112 70 181 183v28h-451zM355 737v-30h463
v-91h-440v-29h440v-91h-470v-30h506v271h-499zM176 -104h34v657q47 111 80 228l-36 8q-38 -136 -98 -263q-49 -103 -114 -196l23 -34q62 88 111 184v-584zM319 233h34v109h524v-109h34v139h-592v-139z" />
    <glyph glyph-name="uni4FBF" unicode="&#x4fbf;" 
d="M949 -66l8 38q-119 8 -236 32q-72 16 -139 48q27 32 39.5 74t16.5 98h236v346h-234v125h304v36h-613v-36h273v-125h-234v-346h232q-4 -51 -16 -88t-37 -66q-39 24 -72 55q-39 36 -73 78l-28 -22q34 -43 74 -81q34 -31 72 -55q-43 -32 -94 -50q-83 -30 -168 -49l14 -36
q93 22 182 57q54 21 100 58q72 -37 151 -55q120 -27 242 -36zM179 -102h36v662q47 108 78 221l-37 10q-39 -138 -101 -266q-49 -105 -116 -198l24 -33q66 89 116 189v-585zM639 258q1 15 1 30v93h198v-123h-199zM838 536v-123h-198v123h198zM406 536h198v-123h-198v123z
M603 258h-197v123h198v-89q0 -17 -1 -34z" />
    <glyph glyph-name="uni4FC2" unicode="&#x4fc2;" 
d="M900 189l29 23q-81 110 -166 217l-29 -20q46 -59 91 -119l-369 -12q205 145 377 328l-28 22q-65 -72 -138 -136l-233 -7q89 79 169 167l-32 18q-88 -100 -198 -176q-20 -9 -41 -12l7 -34q144 6 289 11q-119 -99 -253 -177q-21 -9 -44 -12l6 -36q132 8 265 14v-215
q0 -38 -16 -52t-75 -14h-100l8 -34h97q75 0 98.5 18.5t23.5 73.5v224l211 9q25 -35 51 -69zM176 -109h36v650q51 113 86 231l-36 10q-42 -139 -106 -269q-51 -104 -121 -195l20 -36q70 87 121 186v-577zM910 716l-6 36q-284 -38 -570 -51l2 -36q288 14 574 51zM909 -49
l30 26q-84 100 -174 196l-28 -23q90 -96 172 -199zM486 162l-30 19q-70 -110 -167 -197l28 -26q98 91 169 204z" />
    <glyph glyph-name="uni4FC3" unicode="&#x4fc3;" 
d="M460 347l-38 3q-8 -143 -42.5 -236t-114.5 -187l32 -19q49 57 85 122q29 55 46 115q41 -107 105.5 -148t166.5 -41h255l6 37h-262q-15 0 -29 1v212h261v36h-261v197h196v287h-463v-287h229v-441q-67 11 -113.5 57.5t-75.5 149.5q12 71 17 142zM441 689h387v-214h-387v214
zM299 776l-36 10q-36 -119 -90 -230q-55 -119 -133 -225l21 -33q70 89 122 189v-586h38v664q46 103 78 211z" />
    <glyph glyph-name="uni4FC4" unicode="&#x4fc4;" 
d="M955 166l-34 10q-8 -61 -19 -122q-9 -53 -23.5 -67t-27.5 -13q-14 1 -30.5 14t-33.5 50q-25 57 -37 119q99 96 168 215l-29 15q-60 -106 -147 -192q-23 133 -32 268h241v36h-244l-6 101q-5 98 -7 197h-37q3 -98 8 -196l6 -102h-189v174q60 13 119 32l-7 34
q-139 -41 -283 -62l4 -34q66 9 131 22v-166h-165v-36h165v-185l-160 -37l6 -36l154 37v-196q0 -40 -16 -54.5t-67 -14.5h-76l6 -36h82q63 0 85 19.5t22 72.5v217l151 36l-4 36q-73 -18 -147 -35v176h192q10 -150 36 -298q-90 -79 -194 -139l18 -33q98 58 184 134
q12 -51 32 -99q24 -53 48.5 -75t52.5 -22q26 0 49.5 21t33.5 82q11 66 21 132zM297 783l-36 9q-35 -119 -88 -231q-56 -120 -133 -228l26 -30q64 92 116 191v-591h36v666q46 105 79 214zM886 582l28 24q-65 77 -132 153l-26 -21q66 -77 130 -156z" />
    <glyph glyph-name="uni4FDD" unicode="&#x4fdd;" 
d="M395 726v-274h460v274h-460zM433 690h384v-202h-384v202zM607 -97h36v341q53 -74 119 -135q83 -76 178 -135l22 34q-101 54 -187 128q-69 61 -122 136h291v34h-301v101h-36v-101h-298v-34h279q-59 -88 -140 -156q-82 -67 -176 -117l19 -32q93 54 175 123q81 71 141 160
v-347zM183 -100h36v665q46 103 79 211l-38 9q-35 -118 -89 -229q-56 -117 -133 -222l22 -34q71 89 123 191v-591z" />
    <glyph glyph-name="uni4FE1" unicode="&#x4fe1;" 
d="M382 -97h38v73h399v-73h38v311h-475v-311zM420 180h399v-170h-399v170zM181 -99h37v672q43 101 72 206l-37 10q-37 -131 -96 -253q-48 -102 -115 -192l24 -34q66 87 115 185v-594zM957 628v36h-275q-35 68 -72 134l-38 -11q35 -61 66 -123h-331v-36h650zM877 330v33h-515
v-33h515zM877 478v32h-515v-32h515z" />
    <glyph glyph-name="uni4FEE" unicode="&#x4fee;" 
d="M950 360l12 33q-69 16 -136 40q-65 23 -124 57q105 72 165 184v30h-296q25 40 46 83l-32 12q-75 -154 -206 -265l20 -28q60 50 110 111q55 -75 131 -128q-53 -31 -109 -53q-78 -32 -159 -55l14 -32q86 26 169 61q60 25 116 59q54 -33 113 -56q81 -32 166 -53zM161 -101
h34v649q48 115 80 235l-34 8q-37 -136 -95 -264q-47 -106 -111 -202l27 -26q55 83 99 173v-573zM551 673h274q-57 -101 -154 -165q-84 54 -141 135zM934 155l-18 26q-108 -77 -229 -131q-155 -69 -320 -109l14 -31q167 41 324 111q121 55 229 134zM314 67h32v594h-32v-594z
M851 258l-18 26q-195 -129 -420 -195l16 -29q109 33 212 80q110 50 210 118zM771 358l-16 28q-153 -96 -326 -150l14 -32q173 57 328 154z" />
    <glyph glyph-name="uni4FF1" unicode="&#x4ff1;" 
d="M959 139v34h-122v554h-436v-554h-124v-34h682zM175 -100h36v668q42 100 69 204l-36 7q-36 -132 -94 -256q-45 -98 -109 -185l23 -32q64 87 111 183v-589zM437 693h364v-107h-364v107zM437 280h364v-107h-364v107zM437 417h364v-105h-364v105zM437 554h364v-105h-364v105z
M552 69l-22 28q-114 -92 -247 -153l17 -32q135 65 252 157zM920 -82l20 31q-119 73 -241 141l-18 -29q121 -69 239 -143z" />
    <glyph glyph-name="uni500B" unicode="&#x500b;" 
d="M342 -100h36v67h462v-67h36v828h-534v-828zM378 692h462v-689h-462v689zM495 351v-218h227v218h-95v147h159v32h-159v116h-34v-116h-161v-32h161v-147h-98zM170 -97h36v677q39 100 68 204l-36 8q-36 -131 -92 -256q-44 -98 -104 -188l18 -40q63 90 110 190v-595zM527 319
h163v-154h-163v154z" />
    <glyph glyph-name="uni500D" unicode="&#x500d;" 
d="M408 -104h39v71h370v-71h38v340h-447v-340zM447 202h370v-201h-370v201zM306 774l-38 10q-44 -136 -109 -263q-51 -100 -119 -188l29 -29q66 91 118 190v-597h38v673q45 100 81 204zM826 583l-36 13q-44 -97 -102 -185h-378v-36h648v36h-227q52 83 95 172zM924 629v35
h-570v-35h570zM520 439l34 16q-37 73 -82 141l-34 -17q45 -67 82 -140zM645 671l35 18q-33 60 -70 119l-35 -18q37 -58 70 -119z" />
    <glyph glyph-name="uni5011" unicode="&#x5011;" 
d="M774 -34h-102l6 -34h106q61 0 83.5 20.5t22.5 74.5v708h-221v-339h186v-359q0 -42 -16 -56.5t-65 -14.5zM353 -92h34v488h186v339h-220v-827zM177 -100h34v680q42 99 72 203l-36 8q-39 -135 -99 -263q-46 -103 -109 -197l20 -36q67 99 118 208v-603zM387 705h154v-125
h-154v125zM701 705h154v-125h-154v125zM387 426v124h154v-124h-154zM701 550h154v-124h-154v124z" />
    <glyph glyph-name="uni5012" unicode="&#x5012;" 
d="M604 365l29 12q-52 111 -111 218l-28 -12q36 -66 69 -133l-234 -14q63 112 118 229h187v36h-364v-36h141q-52 -116 -122 -223q-3 -4 -13 -9t-18 -8l8 -32q156 15 313 25zM246 778l-37 8q-32 -129 -83 -252q-40 -96 -95 -184l21 -32q54 86 96 178v-598h34v679
q37 99 64 201zM617 208v35h-153v149h-35v-149h-160v-35h160v-174q-95 -10 -190 -17l3 -36l414 41l-2 35q-95 -11 -190 -20v171h153zM883 776h-34v-733q0 -46 -18 -62t-70 -16h-100l6 -34h105q66 0 88.5 21.5t22.5 80.5v743zM696 119h33v552h-33v-552z" />
    <glyph glyph-name="uni5019" unicode="&#x5019;" 
d="M901 357v33h-376q19 42 35 85l-32 9q-40 -114 -110 -211l28 -18q35 49 63 102h147q0 -68 -2 -135q0 -3 -1 -6h-254v-33h250q-14 -75 -79.5 -132t-202.5 -106l20 -32q124 46 191.5 97t93.5 119q32 -73 95.5 -124.5t160.5 -85.5l20 32q-106 36 -169.5 93t-89.5 139h251v33
h-250q1 6 1 13l4 128h206zM271 782l-34 9q-33 -118 -80 -230q-50 -120 -117 -231l23 -32q57 91 102 189v-585h34v665q42 106 72 215zM954 520v33h-143l15 176h-362v-33h323l-12 -143h-370v-33h549zM320 51h34v632h-34v-632z" />
    <glyph glyph-name="uni501F" unicode="&#x501f;" 
d="M394 -99h38v66h372v-64h38v411h-448v-413zM956 431v34h-192v158h161v34h-161v133h-38v-133h-218v133h-37v-133h-145v-34h145v-158h-188v-34h673zM432 281h372v-126h-372v126zM432 123h372v-124h-372v124zM181 -100h36v680q40 99 70 201l-38 8q-33 -118 -83 -230
q-52 -118 -126 -225l24 -31q67 93 117 197v-600zM508 623h218v-158h-218v158z" />
    <glyph glyph-name="uni503C" unicode="&#x503c;" 
d="M930 664v32h-295v102h-38v-102h-276v-32h276v-123h-214v-544h-111v-34h686v34h-110v544h-213v123h295zM169 -94h37v675q40 101 68 206l-40 8q-34 -134 -89 -261q-45 -101 -107 -193l20 -40q64 92 111 194v-589zM421 104h389v-107h-389v107zM421 509h389v-106h-389v106z
M421 239h389v-106h-389v106zM421 373h389v-104h-389v104z" />
    <glyph glyph-name="uni5047" unicode="&#x5047;" 
d="M341 -95h36v215h220v34h-220v154h203v34h-203v150h194v239h-230v-826zM594 362v-34h259q-17 -65 -48 -125q-26 -48 -64 -89q-32 38 -54 83q-28 56 -43 117l-32 -10q17 -65 47 -125q24 -48 58 -89q-40 -38 -86 -68q-62 -40 -128 -72l20 -32q67 34 130 76q47 31 88 70
q36 -38 79 -69q56 -39 116 -69l19 36q-59 27 -114 63q-42 28 -77 63q41 46 71 100q34 66 52 139v35h-293zM168 -101h36v676q39 101 68 206l-37 6q-34 -131 -89 -254q-44 -97 -105 -185l21 -34q60 86 106 180v-595zM377 696h159v-170h-159v170zM629 530v-36h247v236h-246v-35
h211v-165h-212z" />
    <glyph glyph-name="uni504F" unicode="&#x504f;" 
d="M707 -46h31v188h118v-124q0 -32 -10.5 -43t-47.5 -11h-37l6 -32h38q48 0 66.5 16.5t18.5 61.5v357h-481v-456h33v231h117v-187h32v187h116v-188zM875 489v196h-526v-195q0 -170 -27 -285t-92 -210l29 -23q66 99 95.5 227t29.5 283v7h491zM384 654h455v-133h-455v133z
M273 773l-36 10q-33 -128 -86 -248q-45 -102 -107 -193l22 -32q56 81 101 170v-576h35v655q41 105 71 214zM856 336v-164h-118v164h118zM442 336h117v-164h-117v164zM591 336h116v-164h-116v164zM611 698l38 13l-54 100l-36 -13q27 -50 52 -100z" />
    <glyph glyph-name="uni505A" unicode="&#x505a;" 
d="M934 -85l23 32q-61 52 -115 112q-42 48 -75 102q46 81 69 171q29 121 38 246h87v36h-267q30 88 46 179l-35 6q-38 -213 -150 -398l24 -28q31 47 56 98q10 -90 36 -177q22 -69 56 -133q-35 -55 -80 -103q-59 -63 -127 -116l24 -30q65 54 123 116q43 47 79 100
q33 -53 75 -101q53 -60 113 -112zM309 351v-341h230v341h-97v213h147v35h-147v196h-35v-196h-147v-35h147v-213h-98zM681 578h161q-9 -114 -35 -226q-21 -82 -60 -156q-35 67 -55 140q-25 91 -33 186q12 28 22 56zM341 316h166v-270h-166v270zM153 -99h35v687q34 95 58 194
l-36 9q-26 -112 -68 -219q-43 -116 -106 -222l21 -34q55 88 96 183v-598z" />
    <glyph glyph-name="uni505C" unicode="&#x505c;" 
d="M394 564v-147h446v147h-446zM176 -93h36v667q41 104 73 212l-37 7q-39 -135 -98 -264q-46 -100 -110 -190l24 -32q65 87 112 185v-585zM430 537h374v-94h-374v94zM836 156v32h-442v-32h219v-125q0 -38 -16 -51t-66 -13h-106l6 -34h108q67 0 89 18.5t22 69.5v135h186z
M320 177h36v119h518v-120h36v152h-590v-151zM936 652v32h-616v-32h616zM616 697l42 14l-54 98l-39 -16q27 -47 51 -96z" />
    <glyph glyph-name="uni5065" unicode="&#x5065;" 
d="M512 692v-28h151v-108h-181v-29h181v-108h-151v-28h151v-106h-156v-28h156v-105h-194v-29h194v-103h34v103h238v29h-238v105h211v28h-211v106h175v136h81v29h-81v136h-175v103h-34v-103h-151zM265 705v-32h153l-136 -239v-32h139q-6 -81 -24 -160q-14 -58 -39 -112
q-23 38 -38 80q-21 54 -34 111l-30 -9q14 -58 35 -115q20 -53 50 -101q-51 -86 -116 -161l28 -22q60 73 110 154q50 -61 118 -88t161 -27h302l6 31h-305q-93 0 -157 29t-108 86q29 59 45 122q20 89 28 180v34h-133l136 238v33h-191zM239 778l-35 6q-30 -130 -78 -253
q-38 -99 -93 -190l21 -34q55 91 96 190v-592h34v681q33 95 55 192zM839 664v-108h-142v108h142zM697 419v108h142v-108h-142z" />
    <glyph glyph-name="uni5074" unicode="&#x5074;" 
d="M334 719v-546h246v546h-246zM163 -100h34v673q39 103 68 209l-34 8q-35 -132 -89 -258q-42 -99 -101 -190l19 -34q59 88 103 185v-593zM885 786h-32v-744q0 -44 -15.5 -58.5t-65.5 -14.5h-98l7 -35h99q63 0 84 19.5t21 78.5v754zM366 683h183v-137h-183v137zM366 209v137
h183v-137h-183zM366 514h183v-136h-183v136zM698 115h32v580h-32v-580zM424 106l-28 17q-61 -103 -143 -189l26 -20q83 88 145 192zM608 -63l27 18q-55 87 -118 168l-26 -16q62 -82 117 -170z" />
    <glyph glyph-name="uni5076" unicode="&#x5076;" 
d="M343 -88h35v340h215v-152l-155 -11l3 -34q152 14 305 25l21 -68l30 6q-27 93 -59 184l-29 -8l27 -83l-108 -8v149h221v-223q0 -38 -16.5 -52t-62.5 -14h-79l6 -32h87q59 0 80 19.5t21 66.5v268h-257v114h222v334h-476v-334h219v-114h-250v-373zM171 -100h36v665
q46 105 80 215l-38 8q-35 -120 -88 -233q-54 -116 -131 -219l16 -40q71 91 125 194v-590zM814 702v-120h-186v120h186zM628 431v120h186v-120h-186zM410 702h183v-120h-183v120zM410 551h183v-120h-183v120z" />
    <glyph glyph-name="uni507D" unicode="&#x507d;" 
d="M608 795l-35 6q-21 -100 -51 -197h-212v-32h201q-82 -248 -263 -435l25 -24q52 55 98 115h500q-3 -95 -12 -189q-4 -47 -17 -62t-55 -15h-115l6 -32h115q51 0 73 19t27 78q9 116 14 233h-69l22 172h-75l26 173l-253 -1q29 94 50 191zM824 400l-19 -140h-411q47 67 83 140
h347zM277 786l-35 8q-35 -133 -91 -259q-44 -100 -107 -189l22 -34q63 88 109 187v-596h36v680q38 100 66 203zM773 573l-21 -141h-259q30 69 55 140zM417 148l-31 6q-23 -98 -63 -191l32 -10q39 95 62 195zM513 -39l31 4q-14 90 -34 180l-30 -5q19 -89 33 -179zM650 -7
l30 8q-24 77 -51 153l-28 -7q25 -77 49 -154zM443 649l27 18q-43 59 -89 117l-26 -17q45 -58 88 -118zM777 25l29 10q-26 69 -57 137l-28 -10q30 -68 56 -137z" />
    <glyph glyph-name="uni507F" unicode="&#x507f;" 
d="M831 -20v1l52 -69l29 19q-86 115 -175 227l-30 -16q50 -65 100 -131l-382 -14q47 54 91 110q35 44 65 92h368v34h-653v-34h240q-66 -101 -152 -187q-23 -20 -52 -28l8 -32q245 20 491 28zM174 -98h36v667q44 101 77 207l-36 8q-74 -244 -217 -455l16 -38q70 96 124 202
v-591zM327 394h36v147h517v-148h38v182h-276v220h-36v-220h-279v-181zM832 371v33h-419v-33h419zM470 607l28 16q-44 70 -90 139l-28 -15q46 -69 90 -140zM867 743l-28 15q-41 -70 -89 -136l28 -16q48 66 89 137z" />
    <glyph glyph-name="uni5099" unicode="&#x5099;" 
d="M379 -92h34v171h191v-150h34v150h192v-48q0 -41 -13.5 -54.5t-57.5 -13.5h-69l6 -32h77q53 0 72 20.5t19 79.5v345h-424q41 50 69 109h448v33h-200v132h174v32h-174v113h-35v-113h-213v113h-36v-113h-158v-32h158v-132h-202v-33h197q-37 -68 -89 -124q-64 -71 -143 -124
l18 -34q67 47 125 104v-399zM174 -96h36v676q42 99 72 202l-36 7q-39 -135 -99 -262q-48 -101 -112 -193l19 -36q69 96 120 203v-597zM509 650h213v-132h-213v132zM830 344v-104h-192v104h192zM413 343v1h191v-104h-191v103zM638 210h192v-101h-192v101zM413 210h191v-101
h-191v101z" />
    <glyph glyph-name="uni50A8" unicode="&#x50a8;" 
d="M572 -92h32v66h233v-66h32v409h-234q72 58 131 129h191v32h-165q82 112 134 241l-32 12q-53 -138 -144 -253h-70v157h133v32h-133v131h-33v-131h-140v-32h140v-157h-181v-32h256q-51 -58 -110 -106q-77 -62 -161 -112l15 -31q54 34 106 71v-360zM278 784l-36 8
q-35 -135 -92 -262q-47 -107 -114 -202l22 -34q66 93 115 196v-586h34v663q42 106 71 217zM604 132h233v-127h-233v127zM604 287h233v-125h-233v125zM518 96l-10 36l-110 -86v433h-139v-36h105v-403q0 -14 -4.5 -26.5t-32.5 -24.5l22 -28q84 68 169 135zM432 575l30 18
q-51 86 -104 171l-28 -16q53 -85 102 -173z" />
    <glyph glyph-name="uni50AC" unicode="&#x50ac;" 
d="M955 -28v32h-259v117h227v30h-227v113h227v30h-227v115h240v31h-499q25 49 45 100l-33 8q-65 -172 -196 -301l22 -29q68 70 122 151v-470h36v73h522zM182 -101h36v676q41 99 69 202l-38 9q-38 -140 -100 -271q-52 -110 -123 -210l26 -30q75 104 130 220v-596zM891 757
h-36v-136h-204v175h-36v-175h-206v136h-36v-169h518v169zM433 121h227v-117h-227v117zM433 409h227v-115h-227v115zM433 264h227v-113h-227v113zM690 452l31 14q-27 50 -58 98l-30 -14q31 -48 57 -98z" />
    <glyph glyph-name="uni50B3" unicode="&#x50b3;" 
d="M363 580v-220h235v-93q-149 -6 -298 -9l2 -30q276 11 552 19l42 -53l24 18q-51 64 -106 125l-22 -18q20 -22 39 -45l-199 -6v92h237v220h-237v86h306v31h-306v103h-34v-103h-286v-31h286v-86h-235zM180 -97h36v681q41 99 71 202l-35 8q-39 -133 -99 -258
q-47 -101 -111 -192l20 -36q67 93 118 196v-601zM784 214h-36v-73h-473v-30h473v-77q0 -41 -16 -54t-65 -13h-103l6 -34h109q62 0 83.5 18.5t21.5 70.5v89h172v30h-172v73zM835 556v-74h-203v74h203zM397 556h201v-74h-201v74zM632 385v73h203v-73h-203zM397 458h201v-73
h-201v73zM536 -26l18 28q-74 48 -150 91l-16 -26q75 -45 148 -93z" />
    <glyph glyph-name="uni50B7" unicode="&#x50b7;" 
d="M399 594v-205h433v205h-433zM645 -39l5 -28h73q71 0 97.5 18.5t31.5 70.5q12 94 22 189h-444q35 37 64 78h464v28h-682v-28h180q-85 -112 -206 -184l18 -25q72 44 134 102h133q-40 -68 -103 -118.5t-165 -98.5l18 -28q108 53 176.5 111t111.5 134h119q-28 -87 -78.5 -143
t-156.5 -113l21 -24q109 60 165 122t84 158h109q-8 -76 -19 -152q-4 -41 -25 -55t-79 -14h-68zM177 -95h35v686q39 95 68 194l-35 9q-38 -135 -97 -263q-47 -102 -111 -195l18 -36q70 101 122 212v-607zM508 796l-38 8q-71 -154 -189 -276l28 -24q73 79 131 169h492v30h-473
q27 45 49 93zM435 411v70h361v-70h-361zM435 572h361v-70h-361v70z" />
    <glyph glyph-name="uni50C5" unicode="&#x50c5;" 
d="M946 667v30h-159v96h-36v-96h-272v95h-36v-95h-135v-30h135v-121h155v-87h-236v-153h236v-89h-272v-30h272v-87h-250v-29h250v-92h-324v-30h680v30h-322v92h259v29h-259v87h278v30h-278v89h236v153h-236v87h155v121h159zM185 -98h34v690q40 97 70 198l-36 7
q-34 -120 -86 -234q-54 -119 -128 -226l16 -36q75 102 130 216v-615zM479 576v91h272v-91h-272zM832 431v-99h-200v99h200zM398 431h200v-99h-200v99z" />
    <glyph glyph-name="uni50CF" unicode="&#x50cf;" 
d="M560 790l-34 12q-43 -70 -102 -129q-68 -68 -149 -121l16 -32q39 25 75 54v-172h202q-36 -49 -107 -81t-188 -65l12 -30q81 23 159 54q52 21 98 53q23 -26 42 -55q-59 -48 -126 -84q-92 -49 -189 -84l12 -28q94 37 184 84q70 38 133 88q18 -31 29 -65q-72 -68 -157 -118
q-102 -58 -212 -97l14 -30q108 41 208 99q84 49 154 116q9 -44 9 -89q0 -64 -21.5 -86.5t-77.5 -22.5h-100l6 -30h101q69 0 97.5 27.5t28.5 101.5q2 71 -19 138l80 42q34 -96 78 -158.5t114 -116.5l22 26q-69 52 -120 122q-44 66 -70 141q66 37 129 77l-18 28
q-109 -72 -226 -132q-31 70 -81 127q24 21 39 48h273v172h-190l94 111v28h-274q29 37 52 77zM174 -101h36v675q41 100 70 204l-37 8q-37 -137 -97 -265q-50 -107 -119 -204l24 -30q71 97 123 206v-594zM366 574q65 49 118 110h256l-93 -110h-281zM844 547v-118h-225
q23 57 25 118h200zM400 547h212q-2 -62 -28 -118h-184v118z" />
    <glyph glyph-name="uni5118" unicode="&#x5118;" 
d="M353 705v-28h240v-85h-278v-26h278v-87h-244v-27h244v-87h-297v-28h644v28h-315v87h239v114h94v26h-94v113h-239v93h-32v-93h-240zM956 -44v28h-94v187h-502v-187h-100v-28h696zM168 -97h32v669q40 103 70 209l-33 9q-36 -130 -89 -253q-46 -104 -110 -198l16 -40
q66 95 114 199v-595zM830 143v-159h-127v159h127zM546 143h127v-159h-127v159zM392 143h124v-159h-124v159zM625 479v87h205v-87h-205zM830 677v-85h-205v85h205zM411 306l-26 12q-36 -73 -88 -136l26 -17q52 65 88 141zM916 176l24 19q-49 62 -102 120l-25 -16
q54 -59 103 -123zM539 193l30 6q-15 53 -34 105l-28 -7q17 -52 32 -104zM709 202l28 10q-23 48 -48 94l-26 -10q25 -46 46 -94z" />
    <glyph glyph-name="uni511F" unicode="&#x511f;" 
d="M376 371v-298h473v298h-473zM425 551v-115h384v115h-384zM275 785l-36 7q-39 -136 -97 -266q-46 -104 -108 -199l20 -34q69 103 120 216v-603h35v686q38 95 66 193zM321 514h32v109h528v-109h32v135h-283v153h-34v-153h-275v-135zM410 346h405v-68h-405v68zM410 256h405
v-67h-405v67zM410 99v67h405v-67h-405zM457 529h320v-71h-320v71zM555 4l-11 32q-135 -53 -274 -92l9 -32q140 39 276 92zM942 -88l10 31q-137 47 -276 89l-9 -30q138 -43 275 -90zM855 763l-27 18q-43 -56 -94 -104l24 -20q52 50 97 106zM463 662l26 20q-47 50 -95 99
l-26 -19q49 -49 95 -100z" />
    <glyph glyph-name="uni512A" unicode="&#x512a;" 
d="M304 278h34v94h536v-94h34v114h-66v246h-247q14 36 24 73h311v26h-620v-26h267q-10 -37 -23 -73h-182v-246h-68v-114zM515 188l-26 14q-45 -49 -100 -86q-58 -39 -122 -68l14 -26q69 31 131 75q71 -57 154 -93q-64 -22 -129 -36q-88 -20 -177 -32l9 -28q99 15 197 38
q71 18 139 44q69 -25 140 -40q100 -21 201 -34l9 30q-89 11 -178 27q-67 13 -132 33q98 42 178 112v23h-356q25 22 48 47zM267 784l-36 5q-35 -135 -87 -265q-43 -104 -105 -198l17 -36q65 95 112 201v-589h34v673q38 103 65 209zM408 617h398v-63h-398v63zM408 454h398v-62
h-398v62zM408 534h398v-61h-398v61zM435 114h0.5t0.5 1h331q-73 -61 -162 -96q-93 34 -170 95zM764 321l-27 4q-1 -23 -2 -47q-1 -28 -13.5 -38t-44.5 -10h-134q-26 0 -37 10t-11 40v58h-32v-64q0 -37 15.5 -51.5t51.5 -14.5h152q41 0 59 13t19 47q2 26 4 53zM420 287
l-20 18q-52 -61 -114 -112l19 -20q62 53 115 114zM914 178l18 22l-113 98l-18 -20q58 -49 113 -100zM651 262l18 17q-41 39 -84 77l-17 -16q43 -38 83 -78z" />
    <glyph glyph-name="uni5132" unicode="&#x5132;" 
d="M611 -95h30v69h204v-69h30v413h-213q65 57 118 126h174v34h-149q34 50 61 103q33 69 59 141l-32 8q-44 -136 -127 -252h-59v155h121v33h-121v131h-32v-131h-113v-33h113v-155h-137v-34h202q-42 -51 -91 -95q-65 -59 -136 -110l15 -30q42 31 83 64v-368zM302 -94h30v70
h159v243h-189v-313zM262 777l-34 10q-35 -134 -89 -260q-45 -106 -110 -201l23 -31q67 95 113 201v-594h34v679q36 97 63 196zM641 288h204v-126h-204v126zM641 132h204v-126h-204v126zM332 187h129v-180h-129v180zM537 604v34h-273v-34h273zM509 462v33h-222v-33h222z
M509 324v33h-222v-33h222zM417 665l30 12q-28 63 -62 122l-30 -14q35 -58 62 -120z" />
    <glyph glyph-name="uni513F" unicode="&#x513f;" 
d="M327 782h-39v-339q0 -206 -44.5 -302.5t-193.5 -203.5l31 -33q152 113 199 217t47 322v339zM920 223l-38 6q-1 -77 -6 -153q-3 -50 -22 -67t-75 -17h-61q-49 0 -68.5 18t-19.5 71v700h-40v-707q0 -72 27.5 -96t94.5 -24h71q73 0 99.5 22t30.5 87q4 80 7 160z" />
    <glyph glyph-name="uni5141" unicode="&#x5141;" 
d="M879 368l28 29q-137 139 -274 277l-27 -26q92 -92 182 -186l-598 -17q169 159 308 343l-37 20q-137 -188 -313 -341q-12 -10 -27 -15q-22 -9 -46 -14l12 -40q117 7 235 11q-2 -41 -2 -83q-4 -147 -55 -223.5t-204 -164.5l31 -32q158 97 211.5 179t57.5 241q1 42 1 85
l218 8v-351q0 -67 27.5 -92.5t90.5 -25.5h86q72 0 100.5 22t31.5 84q3 69 5 139l-41 8q-1 -66 -4 -131q-2 -51 -22.5 -67t-77.5 -16h-66q-49 0 -69.5 18t-20.5 69v344l203 6z" />
    <glyph glyph-name="uni5143" unicode="&#x5143;" 
d="M923 199l-39 8q-2 -65 -5 -130q-2 -50 -21.5 -66t-76.5 -16h-67q-49 0 -68.5 18.5t-19.5 68.5v336h320v38h-889v-38h260l-2 -118q-3 -115 -51 -193.5t-203 -164.5l28 -33q158 95 211.5 180t56.5 211q1 59 1 118h227v-344q0 -67 27 -92.5t90 -25.5h86q73 0 99.5 21.5
t29.5 83.5q5 69 6 138zM865 676v38h-727v-38h727z" />
    <glyph glyph-name="uni5145" unicode="&#x5145;" 
d="M915 165l-38 6q-1 -59 -4 -118q-3 -41 -21.5 -57t-75.5 -16h-77q-48 0 -66 15.5t-18 59.5v286l169 6l63 -70l30 28q-115 127 -232 252l-30 -25q69 -74 137 -149l-534 -17q75 74 148 150q47 49 91 102h469v38h-866v-38h347q-110 -126 -235 -236q-29 -22 -66 -26l8 -37
q112 6 224 11l-4 -58q-11 -127 -69.5 -195.5t-211.5 -136.5l22 -35q162 73 225 149.5t74 216.5q3 30 5 61l196 8v-293q0 -61 24.5 -82t85.5 -21h95q74 0 100 22.5t30 78.5q5 60 5 120zM505 677l37 15q-39 62 -78 123l-35 -16q39 -60 76 -122z" />
    <glyph glyph-name="uni5147" unicode="&#x5147;" 
d="M170 741h-34v-465h220q0 -10 -1 -20q-8 -121 -61.5 -178t-213.5 -124l20 -32q167 72 224 134.5t67 197.5q2 11 2 22h186v-242q0 -56 23 -78t83 -22h101q69 0 93.5 18.5t29.5 73.5q4 60 7 120l-36 7q-3 -56 -6 -111q-3 -42 -18.5 -57.5t-71.5 -15.5h-89q-47 0 -63.5 17.5
t-16.5 60.5v229h242v470h-34v-436h-653v431zM727 742l-29 22q-91 -90 -191 -170q-112 85 -227 167l-21 -28q110 -79 218 -161q-114 -84 -236 -157l21 -31q126 77 244 165q107 -81 211 -165l24 28q-102 81 -205 160q100 80 191 170z" />
    <glyph glyph-name="uni5148" unicode="&#x5148;" 
d="M897 584v36h-361v180h-38v-180h-242q27 66 48 135l-38 8q-22 -73 -51 -143h-1v-2q-42 -98 -104 -185l36 -17q54 80 94 168h258v-217h-446v-36h301q-2 -21 -3 -42q-8 -134 -63 -202.5t-208 -138.5l24 -37q159 76 218 153.5t69 224.5q1 21 3 42h203v-279q0 -62 22.5 -84
t85.5 -22h83q74 0 100 20.5t30 82.5q3 61 5 122l-37 7q-1 -59 -4 -117q-3 -44 -22 -60.5t-77 -16.5h-64q-48 0 -65.5 17t-17.5 63v267h310v36h-409v217h361z" />
    <glyph glyph-name="uni5149" unicode="&#x5149;" 
d="M914 184l-38 6q1 -61 -2 -122q-3 -47 -22 -62.5t-75 -15.5h-73q-48 0 -66.5 17t-18.5 63v294h320v38h-421v393h-40v-393h-420v-38h273q-2 -20 -2 -41q-6 -150 -62 -225t-212 -151l31 -33q161 81 218.5 165.5t64.5 243.5q0 21 2 41h208v-305q0 -64 24 -86.5t87 -22.5h92
q72 0 98.5 21t29.5 85q4 64 4 128zM858 701l-32 22q-84 -116 -179 -224l31 -24q95 109 180 226zM316 477l32 23q-87 113 -181 220l-30 -22q93 -108 179 -221z" />
    <glyph glyph-name="uni514B" unicode="&#x514b;" 
d="M182 499v-260h173q-3 -26 -8 -52q-13 -93 -71.5 -144.5t-211.5 -103.5l18 -36q157 57 223.5 115t79.5 158q5 31 9 63h190v-199q0 -56 22.5 -77.5t81.5 -21.5h97q70 0 94 17.5t28 73.5q5 63 7 126l-36 8q-1 -60 -6 -120q-2 -43 -19 -56.5t-73 -13.5h-78q-46 0 -64 15.5
t-18 58.5v189h197v260h-299v142h417v35h-417v122h-36v-122h-418v-35h418v-142h-300zM218 464h563v-190h-563v190z" />
    <glyph glyph-name="uni514D" unicode="&#x514d;" 
d="M908 159l-36 7q-2 -59 -5 -117q-1 -40 -18 -52.5t-70 -12.5h-136q-46 0 -62.5 14.5t-16.5 57.5v187h277v265h-258l140 153v32h-380q32 42 61 87l-34 15q-124 -194 -315 -324l16 -34q138 94 245 222h358l-137 -151h-366v-265h277q-36 -101 -124 -166t-258 -126l20 -36
q181 67 273 140.5t129 187.5h40v-199q0 -57 22.5 -76.5t80.5 -19.5h158q65 0 88 17t25 66q4 64 6 128zM522 474h283v-197h-308q22 97 25 197zM207 474h277q-2 -57 -9 -113q-5 -43 -16 -84h-252v197z" />
    <glyph glyph-name="uni5152" unicode="&#x5152;" 
d="M913 172l-36 8q-1 -62 -4 -123q-1 -45 -20 -59.5t-75 -14.5h-85q-47 0 -63.5 15t-16.5 60v223h223v427h-303v-34h267v-160h-263v-34h263v-165h-598v165h263v34h-263v145q140 25 274 71l-8 35q-148 -49 -302 -76v-408h179q-2 -16 -2 -32q-7 -117 -61 -177.5t-216 -124.5
l18 -33q171 70 231.5 137t67.5 198q0 16 1 32h191v-231q0 -60 23.5 -81.5t84.5 -21.5h98q71 0 97 19.5t30 80.5q3 62 5 125z" />
    <glyph glyph-name="uni5154" unicode="&#x5154;" 
d="M395 792l-35 15q-122 -192 -311 -319l17 -36q138 93 245 221h358l-139 -149h-366v-262h279q-39 -103 -130 -175t-260 -137l18 -38q179 70 275.5 151.5t137.5 198.5h35v-216q0 -58 23.5 -78t81.5 -20h171q65 0 89.5 19t26.5 69q4 63 6 126l-36 8q-2 -58 -5 -116
q-1 -42 -19.5 -56t-71.5 -14h-149q-46 0 -63 15t-17 58v205h286v262h-258l139 151v32h-385q31 41 57 85zM804 489v-191h-309q25 94 27 191h282zM202 489h280q-2 -97 -27 -191h-253v191zM775 74l26 28q-68 63 -139 123l-23 -26q70 -60 136 -125z" />
    <glyph glyph-name="uni515A" unicode="&#x515a;" 
d="M229 434v-241h117q-4 -118 -75.5 -165.5t-193.5 -81.5l16 -37q134 40 210.5 98t80.5 186h194v-165q0 -51 23 -71.5t80 -20.5h102q68 0 91.5 18t27.5 71q3 57 4 114l-36 7q-1 -55 -4 -109q-2 -39 -19.5 -52t-71.5 -13h-80q-46 0 -63 14.5t-17 53.5v153h160v241h-546z
M266 400h472v-173h-472v173zM115 410h38v158h698v-158h37v193h-369v200h-37v-200h-367v-193zM317 622l28 22q-58 65 -120 126l-28 -21q62 -62 120 -127zM807 750l-29 20q-57 -67 -121 -128l26 -22q65 62 124 130z" />
    <glyph glyph-name="uni5165" unicode="&#x5165;" 
d="M915 -70l28 34q-198 135 -297 300.5t-125 383.5v1v3h-1q-6 47 -34.5 66t-86.5 19h-164v-40h150q44 0 67.5 -11.5t30.5 -40.5q-19 -162 -113.5 -337t-321.5 -346l30 -33q195 154 293 307t131 297q41 -195 140 -338t273 -265z" />
    <glyph glyph-name="uni5167" unicode="&#x5167;" 
d="M737 124l28 28q-105 99 -149 174t-73 210h280v-490q0 -51 -17.5 -66t-76.5 -15h-124l7 -36h128q74 0 97.5 20t23.5 87v536h-326l-5 29q-16 89 -43.5 121t-106.5 32h-128v-34h128q59 0 79 -21.5t34 -97.5l5 -29h-357v-671h38v635h321q-40 -126 -92 -210t-165 -179l26 -28
q52 45 99 95q29 31 54 65q31 44 54 92q25 52 44 107q30 -119 75 -190t142 -164z" />
    <glyph glyph-name="uni5168" unicode="&#x5168;" 
d="M838 194v36h-318v183h291v36h-621v-36h290v-183h-317v-36h317v-198h-406v-36h853v36h-407v198h318zM934 406l19 34q-142 66 -264 163q-93 74 -161 170h-55q-77 -109 -185 -188q-114 -84 -243 -144l18 -36q128 62 243 145q109 80 194 185q88 -107 199 -189
q111 -81 235 -140z" />
    <glyph glyph-name="uni5169" unicode="&#x5169;" 
d="M140 -87h36v584h305v-567h36v567h307v-455q0 -43 -18.5 -59t-70.5 -16h-93l6 -34h99q65 0 89 22t24 77v499h-343v157h427v35h-888v-35h425v-157h-341v-618zM421 81l30 12q-67 175 -141 347l-30 -10q20 -46 39 -92q-33 -130 -109 -242l27 -18q66 101 100 217
q43 -107 84 -214zM762 95l29 13q-67 168 -142 333l-29 -11l38 -86q-31 -132 -107 -244l27 -18q66 102 98 220q44 -103 86 -207z" />
    <glyph glyph-name="uni516B" unicode="&#x516b;" 
d="M382 766h-40q-13 -313 -68 -469.5t-218 -342.5l35 -27q167 196 222 356t69 483zM908 -73l34 29q-169 176 -229.5 344.5t-69.5 485.5h-40q11 -327 72 -500t233 -359z" />
    <glyph glyph-name="uni516C" unicode="&#x516c;" 
d="M817 -82l33 21q-112 174 -229 345l-32 -20l147 -220l-496 -23q73 91 135 190q72 114 130 236l-38 14q-58 -123 -131 -238q-60 -97 -133 -185q-9 -10 -24.5 -16t-43.5 -12l11 -38q108 9 215 16q199 12 398 21zM918 320l25 32q-121 83 -195 180t-132 251l-35 -12
q59 -161 137 -263t200 -188zM414 757l-36 12q-47 -115 -120 -214q-88 -117 -203 -207l24 -31q119 94 209 215q77 105 126 225z" />
    <glyph glyph-name="uni516D" unicode="&#x516d;" 
d="M948 520v38h-895v-38h895zM878 -78l38 21q-129 228 -272 447l-36 -20q144 -219 270 -448zM390 373l-40 14q-55 -131 -128 -252q-61 -101 -137 -193l35 -24q86 108 155 227q64 111 115 228zM524 581l40 16q-46 102 -100 201l-38 -15q54 -99 98 -202z" />
    <glyph glyph-name="uni5170" unicode="&#x5170;" 
d="M769 781l-36 22q-82 -118 -171 -232h-466v-39h807v39h-289q80 103 155 210zM947 -22v39h-895v-39h895zM840 268v38h-682v-38h682zM369 594l33 24q-70 93 -145 181l-30 -25q74 -87 142 -180z" />
    <glyph glyph-name="uni5171" unicode="&#x5171;" 
d="M947 242v38h-253v282h222v38h-222v203h-40v-203h-320v203h-40v-203h-221v-38h221v-282h-251v-38h904zM334 562h320v-282h-320v282zM891 -77l26 33q-149 110 -302 215l-24 -31q153 -104 300 -217zM401 141l-26 30q-143 -121 -304 -217l22 -34q161 100 308 221z" />
    <glyph glyph-name="uni5173" unicode="&#x5173;" 
d="M878 549v37h-272q82 97 157 200l-36 20q-80 -115 -171 -220h-447v-37h364v-192q0 -11 -1 -22h-410v-38h405q-18 -94 -108.5 -181t-299.5 -164l20 -38q181 69 281 152t134 178q46 -116 152.5 -198t268.5 -128l18 39q-172 46 -277.5 132t-140.5 208h412v38h-414q1 12 1 24
v190h364zM360 614l34 21l-130 162l-33 -20q65 -81 129 -163z" />
    <glyph glyph-name="uni5174" unicode="&#x5174;" 
d="M949 293v38h-899v-38h899zM880 -78l30 31q-140 133 -289 255l-29 -30q149 -122 288 -256zM397 181l-30 28q-132 -142 -287 -257l28 -33q155 119 289 262zM293 402l36 18q-79 157 -162 311l-36 -16q84 -155 162 -313zM868 718l-36 16q-72 -163 -162 -318l33 -19
q89 157 165 321zM516 432l40 8q-45 167 -96 332l-38 -9q51 -164 94 -331z" />
    <glyph glyph-name="uni5176" unicode="&#x5176;" 
d="M958 150v34h-200v455h169v34h-169v122h-38v-122h-441v122h-38v-122h-168v-34h168v-455h-199v-34h916zM279 314h441v-130h-441v130zM279 639h441v-129h-441v129zM279 476h441v-128h-441v128zM405 60l-16 32q-151 -86 -313 -149l14 -34q162 66 315 151zM902 -88l16 32
q-156 78 -317 145l-14 -32q160 -67 315 -145z" />
    <glyph glyph-name="uni5177" unicode="&#x5177;" 
d="M955 138v34h-167v562h-577v-562h-167v-34h911zM249 282h501v-110h-501v110zM249 561h501v-108h-501v108zM249 700h501v-107h-501v107zM249 421h501v-107h-501v107zM410 70l-19 30q-155 -94 -326 -155l14 -33q173 64 331 158zM907 -79l16 34q-162 72 -327 138l-14 -32
q164 -66 325 -140z" />
    <glyph glyph-name="uni5178" unicode="&#x5178;" 
d="M956 159v36h-116v461h-214v133h-36v-133h-177v133h-36v-133h-213v-461h-118v-36h910zM626 391h177v-196h-177v196zM413 391h177v-196h-177v196zM201 391h176v-196h-176v196zM803 620v-193h-177v193h177zM413 620h177v-193h-177v193zM201 620h176v-193h-176v193zM414 66
l-18 32q-159 -91 -328 -160l14 -34q171 71 332 162zM909 -90l16 33q-161 81 -328 151l-14 -32q166 -70 326 -152z" />
    <glyph glyph-name="uni517B" unicode="&#x517b;" 
d="M744 788l-32 18q-61 -70 -127 -135h-495v-32h390q-5 -62 -19 -122h-338v-31h330q-17 -66 -53 -123h-345v-32h322q-49 -61 -129.5 -109.5t-202.5 -90.5l15 -36q137 50 224 107t138 129h141q62 -83 151 -140t221 -94l14 36q-124 33 -203.5 79t-138.5 119h336v32h-500
q33 58 49 123h383v31h-375q13 60 18 122h390v32h-276q58 57 112 117zM376 203h-38q0 -105 -36 -167.5t-166 -114.5l24 -30q134 57 175 126t41 186zM638 -98h38v304h-38v-304zM352 686l30 20q-49 54 -101 105l-28 -20q50 -52 99 -105z" />
    <glyph glyph-name="uni517C" unicode="&#x517c;" 
d="M710 794l-33 18q-45 -68 -97 -131h-528v-32h296v-118h-239v-32h239v-110h-313v-32h313v-110h-248v-32h239q-50 -70 -117 -126q-87 -70 -187 -120l20 -34q94 49 176 116q65 55 117 122v-278h36v320h181v-320h36v283q64 -79 147 -138q82 -58 174 -97l17 35q-96 37 -179 96
q-84 60 -148 141h201v142h131v32h-131v142h-212v118h320v32h-295q44 55 84 113zM384 649h181v-118h-181v118zM384 357h181v-110h-181v110zM384 499h181v-110h-181v110zM777 499v-110h-176v110h176zM601 247v110h176v-110h-176zM333 691l30 20q-40 52 -83 101l-30 -20
q43 -49 83 -101z" />
    <glyph glyph-name="uni517D" unicode="&#x517d;" 
d="M721 778l-34 20q-46 -63 -100 -120h-216l29 24q-45 49 -92 95l-29 -24q46 -46 90 -95h-219v-307h699v307h-213q44 49 85 100zM188 -99h36v61h551v-61h36v258h-623v-258zM224 128h551v-135h-551v135zM186 510h297v-111h-297v111zM518 399v111h295v-111h-295zM186 648h297
v-109h-297v109zM813 648v-109h-295v109h295zM957 251v31h-915v-31h915z" />
    <glyph glyph-name="uni5185" unicode="&#x5185;" 
d="M742 144l28 30q-132 134 -267 264q18 71 17 145v6h302v-534q0 -51 -17.5 -66t-76.5 -15h-123l7 -38h128q73 0 96.5 20.5t23.5 86.5v583h-340v169h-39v-169h-340v-718h38v681h302v-4q0 -130 -52 -222.5t-204 -201.5l26 -32q97 70 154 134.5t84 134.5q129 -125 253 -254z
" />
    <glyph glyph-name="uni518A" unicode="&#x518a;" 
d="M371 -59h36v412h183v-412h36v412h192v-303q0 -48 -16 -64t-66 -16h-71l6 -36h76q64 0 86.5 21.5t22.5 85.5v312h103v36h-103v355h-705v-355h-109v-36h109v-444h38v444h182v-412zM818 708v-319h-192v319h192zM407 708h183v-319h-183v319zM189 708h182v-319h-182v319z" />
    <glyph glyph-name="uni518C" unicode="&#x518c;" 
d="M233 -18l6 -36h85q61 0 84.5 22t23.5 78v312h137q-1 -177 -22.5 -258.5t-85.5 -178.5l36 -18q65 101 86 187.5t22 267.5h186v-311q0 -43 -14.5 -58t-64.5 -15h-86l7 -38h89q63 0 84 19.5t21 77.5v325h132v36h-132v332h-258v-321v-11h-137v332h-249v-321v-11h-141v-36h141
q-1 -178 -23 -259.5t-89 -177.5l36 -18q67 100 89 186.5t23 268.5h177v-304q0 -40 -17 -56t-63 -16h-83zM605 690h186v-296h-186v296zM219 690h177v-296h-177v296z" />
    <glyph glyph-name="uni518D" unicode="&#x518d;" 
d="M958 152v35h-143v363h-296v135h409v34h-853v-34h406v-135h-295v-363h-143v-35h143v-247h38v247h553v-101q0 -48 -19 -64t-78 -16h-107l6 -38h112q74 0 99 21.5t25 84.5v113h143zM519 337h258v-150h-258v150zM224 337h257v-150h-257v150zM777 516v-145h-258v145h258z
M224 516h257v-145h-257v145z" />
    <glyph glyph-name="uni5192" unicode="&#x5192;" 
d="M190 -103h38v68h530v-66h38v479h-606v-481zM228 349h530v-100h-530v100zM228 94h530v-100h-530v100zM228 221h530v-99h-530v99zM129 440h40v267h651v-267h40v298h-731v-298zM738 466v28h-486v-28h486zM738 587v28h-486v-28h486z" />
    <glyph glyph-name="uni5199" unicode="&#x5199;" 
d="M501 -27l7 -36h150q87 0 122.5 30.5t41.5 105.5q9 125 15 250h-561l16 155h505v34h-502l12 111h-39l-35 -336h563q-6 -103 -15 -206q-5 -60 -34 -84t-100 -24h-146zM131 528h40v158h670v-154h40v190h-750v-194zM694 102v36h-626v-36h626z" />
    <glyph glyph-name="uni51B2" unicode="&#x51b2;" 
d="M592 -101h38v322h205v-76h39v455h-244v200h-38v-200h-245v-457h38v78h207v-322zM385 562h207v-303h-207v303zM835 562v-303h-205v303h205zM252 351l-36 12q-29 -89 -62 -177q-38 -103 -80 -205l36 -14q78 190 142 384zM223 474l34 19q-70 131 -144 259l-33 -17
q74 -129 143 -261z" />
    <glyph glyph-name="uni51B3" unicode="&#x51b3;" 
d="M568 800h-40v-177h-216v-36h216q-1 -109 -2 -219q0 -20 -2 -39h-254v-36h250q-17 -108 -93.5 -187.5t-238.5 -159.5l23 -36q152 77 233 157t107 181q46 -114 137 -194.5t233 -136.5l22 37q-152 59 -241 140t-128 199h375v36h-124v294h-257v177zM788 587v-258h-224
q2 20 2 41q1 109 2 217h220zM239 360l-40 9q-27 -91 -58 -181q-37 -111 -78 -221l39 -12q69 202 137 405zM206 471l38 16q-61 131 -126 259l-35 -15q64 -129 123 -260z" />
    <glyph glyph-name="uni51B5" unicode="&#x51b5;" 
d="M360 716v-363h115q-1 -32 -2 -63q-7 -137 -54.5 -208.5t-179.5 -143.5l26 -30q135 77 186 154.5t58 225.5q2 32 2 65h171v-325q0 -47 20 -64.5t69 -17.5h67q57 0 76 15.5t21 61.5q5 74 5 148l-36 6q-1 -70 -4 -140q-1 -33 -13.5 -44t-55.5 -11h-48q-35 0 -49 12.5
t-14 45.5v313h139v363h-499zM398 680h423v-291h-423v291zM257 344l-36 14q-31 -107 -71 -212q-35 -91 -81 -178l36 -18q45 89 81 183q39 104 71 211zM219 473l36 17q-68 134 -140 265l-32 -16q70 -132 136 -266z" />
    <glyph glyph-name="uni51C0" unicode="&#x51c0;" 
d="M804 82h35v246h110v32h-110v174h-196l116 148v26h-290q30 45 54 94l-38 9q-37 -77 -89 -144q-53 -67 -114 -125l28 -23q77 72 138 157h263l-111 -142h-269v-32h224v-142h-291v-32h291v-141h-261v-33h261v-108q0 -40 -17 -54.5t-75 -14.5h-106l6 -34h110q70 0 94 20t24 73
v118h213v-72zM804 502v-142h-213v142h213zM591 328h213v-141h-213v141zM230 358l-36 10q-61 -193 -125 -385l37 -12zM188 492l38 14q-61 132 -126 261l-34 -14q64 -129 122 -261z" />
    <glyph glyph-name="uni51C6" unicode="&#x51c6;" 
d="M952 -9v34h-260v175h224v34h-224v162h224v33h-224v163h245v34h-510q38 83 59 171l-40 6q-59 -235 -213 -422l26 -32q68 83 119 177v-625h38v90h536zM416 200h239v-175h-239v175zM416 592h239v-163h-239v163zM416 396h239v-162h-239v162zM245 314l-38 12
q-60 -185 -122 -370l40 -12q59 185 120 370zM220 486l36 18q-64 127 -134 251l-34 -16q70 -124 132 -253zM715 640l30 20q-50 72 -106 140l-30 -18q55 -70 106 -142z" />
    <glyph glyph-name="uni51CF" unicode="&#x51cf;" 
d="M945 175l-30 6q-4 -56 -11 -111q-6 -49 -20 -67t-26 -19q-13 -2 -28.5 8.5t-34.5 51.5q-23 53 -36 110q44 70 73 147q36 97 54 199l-32 5q-16 -90 -45 -175q-24 -68 -60 -131q-16 80 -26 160q-13 117 -20 234q-1 6 -1 13h234v34h-236q-6 80 -9 161h-34q3 -81 8 -161h-356
v-403q0 -79 -23.5 -162.5t-67.5 -147.5l33 -22q43 69 65 148q26 90 27 184v369h324q1 -4 1 -8q7 -132 24 -264q11 -89 31 -176q-81 -120 -199 -205l24 -26q106 82 186 190q12 -44 31 -86q26 -57 49 -73.5t45 -15.5q23 1 43.5 22.5t29.5 89.5q9 60 13 121zM425 315v-253h176
v253h-176zM453 282h119v-188h-119v188zM199 371l-36 6q-51 -200 -111 -398l38 -8q56 200 109 400zM180 480l36 12q-51 134 -108 266l-34 -11q58 -132 106 -267zM630 436v33h-228v-33h228zM857 661l25 18q-47 56 -99 108l-22 -18q50 -52 96 -108z" />
    <glyph glyph-name="uni51E0" unicode="&#x51e0;" 
d="M928 220l-38 8q-2 -86 -6 -171q-1 -41 -12.5 -54.5t-50.5 -13.5h-57q-42 0 -55 13.5t-13 56.5v655h-435v-292q0 -202 -38.5 -287.5t-164.5 -192.5l32 -28q131 116 171 207t40 301v252h355v-628q0 -58 21 -77.5t73 -19.5h81q53 0 71 19t20 75q5 88 6 177z" />
    <glyph glyph-name="uni51E1" unicode="&#x51e1;" 
d="M926 221l-36 7q-3 -87 -7 -173q-1 -39 -15 -53t-56 -14h-37q-41 0 -55.5 14.5t-14.5 61.5v652h-472v-313q0 -185 -33 -273.5t-146 -194.5l32 -26q118 112 152.5 207.5t34.5 286.5v273h391v-624q0 -62 22.5 -83t74.5 -21h59q53 0 75 19t24 72q5 91 7 182zM568 219l30 28
q-116 128 -237 251l-28 -26q120 -124 235 -253z" />
    <glyph glyph-name="uni51ED" unicode="&#x51ed;" 
d="M876 725l-4 32q-265 -41 -532 -56l2 -32q129 7 258 20v-144h-301v-32h301v-146h-263v-32h571v32h-270v146h306v32h-306v149q119 13 238 31zM921 151l-34 8l-7 -120q-1 -37 -17 -49.5t-63 -12.5h-66q-40 0 -54.5 13t-14.5 53v175h-376v-49q0 -89 -37 -131.5t-175 -96.5
l20 -34q147 60 189 109.5t42 137.5v30h299v-153q0 -52 21 -70.5t76 -18.5h81q60 0 83 18t26 67zM309 785l-33 12q-44 -96 -110 -180q-54 -70 -123 -127l16 -35q77 65 139 145v-311h38v364q41 63 73 132z" />
    <glyph glyph-name="uni51F6" unicode="&#x51f6;" 
d="M831 -90h38v756h-38v-647h-664v639h-38v-677h702v-71zM738 760l-34 20q-91 -158 -202 -303q-121 150 -245 297l-30 -22q127 -152 250 -307q-120 -152 -260 -287l28 -29q138 133 257 284q113 -142 222 -286l34 26q-114 147 -231 293q116 150 211 314z" />
    <glyph glyph-name="uni51F8" unicode="&#x51f8;" 
d="M126 -97h39v82h671v-82h39v535h-189v295h-371v-295h-189v-535zM165 400h189v294h292v-294h190v-377h-671v377z" />
    <glyph glyph-name="uni51FA" unicode="&#x51fa;" 
d="M826 -97h39v393h-39v-290h-307v384h316v323h-38v-285h-278v374h-38v-374h-276v285h-38v-323h314v-384h-304v288h-39v-326h688v-65z" />
    <glyph glyph-name="uni51FB" unicode="&#x51fb;" 
d="M950 358v37h-430v203h367v37h-367v169h-38v-169h-367v-37h367v-203h-430v-37h430v-348h-276v251h-38v-288h628v-72h38v361h-38v-252h-276v348h430z" />
    <glyph glyph-name="uni5200" unicode="&#x5200;" 
d="M467 -2l8 -40h174q96 0 131.5 29.5t39.5 112.5q14 305 26 610h-759v-40h283l-9 -175q-11 -203 -71.5 -316t-231.5 -236l32 -32q171 126 235.5 246.5t75.5 331.5l9 181h394q-11 -277 -24 -554q-4 -72 -33 -95t-112 -23h-168z" />
    <glyph glyph-name="uni5203" unicode="&#x5203;" 
d="M475 -2l8 -40h174q95 0 131.5 29.5t40.5 112.5q14 306 24 612h-758v-40h342l-8 -179q-12 -211 -88.5 -324t-280.5 -226l27 -34q218 127 293.5 245t88.5 341q5 88 8 177h334q-10 -278 -23 -556q-4 -71 -34 -94.5t-111 -23.5h-168zM270 542l-38 14q-30 -90 -69 -177
q-31 -71 -72 -138l36 -18q40 68 72 139q40 88 71 180z" />
    <glyph glyph-name="uni5206" unicode="&#x5206;" 
d="M420 -15l7 -38h143q83 0 117.5 26t41.5 97q15 163 25 327h-585v-38h170q-2 -38 -5 -76q-10 -115 -61.5 -189.5t-208.5 -157.5l30 -30q161 90 216 171.5t63 205.5q2 38 6 76h333q-9 -137 -23 -274q-5 -60 -32 -80t-98 -20h-139zM934 355l21 36q-135 83 -214.5 176.5
t-132.5 231.5l-36 -12q57 -148 140 -246.5t222 -185.5zM418 770l-36 14q-57 -124 -146 -226q-83 -94 -185 -166l22 -32q122 86 217 201q77 96 128 209z" />
    <glyph glyph-name="uni5207" unicode="&#x5207;" 
d="M594 -6l8 -40h110q82 0 114.5 28t35.5 101q14 308 24 617h-481v-40h156q-2 -84 -6 -167q-9 -228 -53 -330t-190 -233l34 -28q146 136 193 247t56 341q4 85 5 170h244q-9 -282 -21 -563q-2 -61 -29 -82t-96 -21h-104zM435 164l-9 40l-191 -120v383l201 25l-1 39l-200 -25
v292h-38v-296l-156 -19l4 -40l152 19v-365q0 -16 -4 -29.5t-28 -27.5l22 -34q120 85 248 158z" />
    <glyph glyph-name="uni5211" unicode="&#x5211;" 
d="M409 -82h36v421h147v35h-147v306h129v35h-506v-35h118v-285v-21h-137v-35h136q-2 -160 -25.5 -241.5t-95.5 -177.5l32 -16q75 101 99 183.5t26 251.5h188v-421zM222 397v283h187v-306h-187v23zM873 788h-36v-738q0 -45 -19 -62.5t-71 -17.5h-113l6 -36h116q68 0 92.5 24
t24.5 82v748zM644 117h36v578h-36v-578z" />
    <glyph glyph-name="uni5212" unicode="&#x5212;" 
d="M553 544l-4 36l-315 -53l-3 69q-4 100 -7 201h-38l8 -198l4 -78l-154 -25l4 -36l153 25q7 -93 21 -185q9 -64 25 -126q-97 -83 -207 -146l19 -33q106 62 199 141q19 -60 51 -113q32 -50 57.5 -68t50.5 -18q32 -1 55.5 23t37.5 82q16 62 27 126l-34 12q-9 -60 -23 -119
q-10 -46 -26 -64.5t-37 -16.5q-14 1 -33 12.5t-43 48.5q-35 57 -53 121q124 116 205 265l-30 18q-73 -136 -185 -243q-32 143 -41 289zM874 796h-36v-746q0 -46 -15 -62t-66 -16h-105l7 -36h107q67 0 87.5 22t20.5 79v759zM637 125h36v583h-36v-583zM441 609l22 22
q-66 70 -137 134l-20 -20q70 -66 135 -136z" />
    <glyph glyph-name="uni5217" unicode="&#x5217;" 
d="M301 218l22 30q-68 60 -139 116q30 54 54 111h226q-43 -189 -126 -304.5t-262 -235.5l26 -32q182 125 270 250t132 324v34h-251q33 86 55 176h266v36h-498v-36h192q-31 -136 -93 -260q-54 -108 -130 -202l26 -28q52 63 94 133q70 -53 136 -112zM881 788h-38v-732
q0 -45 -20 -63t-78 -18h-122l7 -38h125q73 0 99.5 24t26.5 81v746zM639 123h38v575h-38v-575z" />
    <glyph glyph-name="uni5219" unicode="&#x5219;" 
d="M125 160h36v531h297v-529h36v566h-369v-568zM327 610h-36v-250q0 -153 -48 -236.5t-197 -173.5l22 -30q97 58 152.5 114t80.5 127q110 -99 216 -202l28 29q-115 107 -233 212q16 75 15 152v258zM865 780h-36v-721q0 -46 -18.5 -63t-70.5 -17h-114l8 -36h114q67 0 92 22.5
t25 84.5v730zM640 130h34v574h-34v-574z" />
    <glyph glyph-name="uni521A" unicode="&#x521a;" 
d="M112 -90h34v780h380v-646q0 -43 -17 -58.5t-64 -15.5h-95l6 -34h101q58 0 80.5 20.5t22.5 76.5v691h-448v-814zM467 588l-30 12q-43 -118 -99 -230q-58 113 -118 224l-28 -15q66 -122 129 -245q-64 -126 -141 -246l28 -20q71 112 131 230q56 -109 110 -220l29 17
q-60 120 -121 239q61 124 110 254zM886 781h-34v-739q0 -44 -16 -58.5t-65 -14.5h-103l7 -35h105q64 0 85 21t21 77v749zM685 117h33v573h-33v-573z" />
    <glyph glyph-name="uni521B" unicode="&#x521b;" 
d="M555 161l-36 7q-1 -53 -5 -105q-3 -47 -20.5 -62.5t-76.5 -15.5h-133q-55 0 -73 18t-18 74v350h255q-1 -72 -6 -143q-2 -45 -16.5 -60.5t-66.5 -15.5h-86l6 -32h90q64 0 84.5 22.5t22.5 77.5q5 93 6 186h-325v-395q0 -70 25 -93.5t92 -23.5h147q73 0 98.5 19t29.5 77
q5 57 6 115zM879 789h-36v-733q0 -46 -18 -62.5t-72 -16.5h-112l8 -39h114q69 0 92.5 22t23.5 81v748zM568 488l26 29l-250 220q16 25 29 51l-34 16q-49 -89 -115 -164q-82 -95 -182 -170l22 -28q153 110 260 264zM651 143h36v570h-36v-570z" />
    <glyph glyph-name="uni521D" unicode="&#x521d;" 
d="M585 -15l7 -38h110q84 0 117 27.5t37 100.5q15 312 28 624h-483v-38h157q-2 -87 -6 -173q-9 -212 -52.5 -314.5t-177.5 -242.5l33 -26q135 146 180.5 254t54.5 325q4 88 6 177h248q-12 -286 -27 -571q-3 -61 -30 -83t-98 -22h-104zM398 179l20 28l-99 73q64 74 122 152
l-26 20q-58 -79 -123 -152l-54 40v72q61 83 105 176v33h-281v-38h237q-43 -90 -103 -169q-70 -91 -156 -167l12 -37q80 71 148 153v-461h38v398q81 -59 160 -121zM244 651l34 14q-37 73 -76 144l-34 -16q40 -70 76 -142z" />
    <glyph glyph-name="uni5220" unicode="&#x5220;" 
d="M166 -13l6 -34h57q47 0 62.5 18.5t15.5 70.5v314h98q0 -80 -5 -160q-3 -45 -10 -89q-17 -98 -64 -186l30 -12q47 91 65 192q7 46 10 92q6 81 6 163h117v-310q0 -43 -11 -56t-45 -13h-55l6 -34h61q44 0 60 18t16 71v324h78v34h-78v337h-181v-319v-18h-98v337h-176v-319
v-18h-90v-34h90q0 -81 -5 -162q-3 -43 -10 -87q-8 -47 -24 -91q-18 -46 -42 -90l30 -14q24 45 43 92q17 47 25 96q7 45 10 90q5 83 5 166h112v-302q0 -38 -11.5 -52.5t-44.5 -14.5h-53zM437 391v302h117v-303h-117v1zM163 391v302h112v-303h-112v1zM884 784h-32v-739
q0 -46 -17.5 -63t-64.5 -17h-103l6 -32h105q60 0 83 24t23 80v747zM703 128h32v567h-32v-567z" />
    <glyph glyph-name="uni5224" unicode="&#x5224;" 
d="M572 211v36h-238q6 68 5 136v26h213v36h-213v348h-37v-348h-218v-36h218v-22q0 -70 -5 -140h-240v-36h236q-13 -97 -54 -157.5t-127 -131.5l30 -24q89 76 132 141.5t56 171.5h242zM879 788h-37v-733q0 -43 -18.5 -60t-73.5 -17h-122l8 -40h125q69 0 93.5 23.5t24.5 79.5
v747zM646 121h38v585h-38v-585zM549 718l-30 14q-57 -105 -119 -207l30 -14q62 102 119 207zM197 515l31 15q-53 100 -109 197l-30 -14q57 -97 108 -198z" />
    <glyph glyph-name="uni5225" unicode="&#x5225;" 
d="M244 -18l6 -32h90q78 0 109 25t35 91q8 121 11 242h-257v5q3 75 6 151h242v266h-361v-266h83q-2 -76 -5 -151q-6 -141 -31 -216.5t-117 -163.5l30 -22q86 87 115 160.5t36 201.5h221q-3 -98 -9 -195q-3 -56 -27.5 -76t-92.5 -20h-84zM161 696h289v-198h-289v198zM866 785
h-36v-731q0 -46 -20 -63.5t-72 -17.5h-116l7 -35h118q68 0 93.5 24t25.5 82v741zM635 137h36v567h-36v-567z" />
    <glyph glyph-name="uni5229" unicode="&#x5229;" 
d="M542 458v36h-220v184q100 15 200 35l-6 36q-219 -44 -441 -67l4 -36q103 11 205 26v-178h-224v-36h221q-82 -199 -236 -350l25 -32q135 135 214 308v-481h38v555h220zM878 788h-38v-731q0 -48 -20.5 -66.5t-78.5 -18.5h-125l8 -38h127q74 0 100.5 24.5t26.5 85.5v744z
M620 117h38v588h-38v-588zM513 152l27 29q-81 83 -165 163l-26 -26q85 -80 164 -166z" />
    <glyph glyph-name="uni522A" unicode="&#x522a;" 
d="M260 -59h34v417h112v-417h34v417h113v-321q0 -41 -10.5 -55.5t-45.5 -14.5h-26l6 -33h32q44 0 61 19.5t17 77.5v327h66v34h-66v334h-474v-334h-64v-34h64v-448h35v448h112v-417zM896 769h-34v-743q0 -42 -17 -56.5t-70 -14.5h-88l6 -34h90q66 0 89.5 19.5t23.5 75.5v753z
M553 692v-300h-113v300h113zM148 692h112v-300h-112v300zM294 692h112v-300h-112v300zM710 109h34v574h-34v-574z" />
    <glyph glyph-name="uni522B" unicode="&#x522b;" 
d="M125 730v-266h361v266h-361zM161 696h288v-197h-288v197zM244 -15l6 -34h90q78 0 109.5 25t34.5 91q7 120 11 241h-241q1 2 1 5q3 70 5 141h-36q-1 -71 -6 -141q0 -3 -1 -5h-165v-35h163q-9 -119 -42.5 -188.5t-118.5 -150.5l31 -23q87 88 122 161t45 201h205
q-3 -96 -8 -192q-2 -56 -27.5 -76t-93.5 -20h-84zM866 785h-36v-732q0 -46 -20 -63.5t-72 -17.5h-116l7 -37h118q68 0 93.5 24t25.5 82v744zM635 137h36v567h-36v-567z" />
    <glyph glyph-name="uni5230" unicode="&#x5230;" 
d="M534 365l30 18q-73 111 -151 219l-28 -18q44 -63 87 -126l-320 -14q86 115 163 236h253v36h-510v-36h214q-75 -122 -169 -231q-3 -3 -13.5 -7.5t-20.5 -6.5l8 -33q208 14 417 24zM553 209v36h-220v158h-38v-158h-221v-36h221v-181l-256 -22l3 -37q269 25 539 47v37
l-248 -22v178h220zM879 784h-38v-736q0 -46 -19.5 -63t-71.5 -17h-115l8 -36h119q67 0 92 22.5t25 81.5v748zM645 118h36v587h-36v-587z" />
    <glyph glyph-name="uni5236" unicode="&#x5236;" 
d="M576 603v34h-221v155h-36v-155h-148q18 56 31 114l-35 5q-29 -131 -87 -253l34 -10q26 54 46 110h159v-154h-267v-34h267v-139h-194v-318h34v284h160v-351h36v351h157v-171q0 -30 -12.5 -41.5t-46.5 -11.5h-55l6 -34h61q45 0 63 17t18 57v218h-191v139h242v34h-242v154
h221zM888 780h-36v-732q0 -45 -18 -64t-70 -19h-114l8 -36h117q67 0 90 24t23 81v746zM675 108h36v591h-36v-591z" />
    <glyph glyph-name="uni523A" unicode="&#x523a;" 
d="M114 236h32v240h162v-137q-43 -103 -114 -189q-68 -79 -152 -141l17 -36q157 121 249 297v-377h35v583h162v-137q0 -30 -11.5 -41t-45.5 -11h-58l6 -32h62q46 0 62.5 16.5t16.5 59.5v177h-194v132h250v34h-250v122h-35v-122h-258v-34h258v-132h-194v-272zM880 787h-36
v-735q0 -46 -19.5 -63.5t-71.5 -17.5h-112l6 -36h116q67 0 92 23.5t25 81.5v747zM663 131h35v562h-35v-562zM572 11l22 28q-97 81 -198 157l-20 -26q100 -77 196 -159z" />
    <glyph glyph-name="uni523B" unicode="&#x523b;" 
d="M493 536l-30 15q-36 -69 -81 -133l-209 -8q75 96 134 203h284v36h-534v-36h208q-56 -104 -135 -193q-19 -14 -43 -20l9 -35q129 12 259 17q-53 -67 -118 -121q-86 -69 -182 -122l19 -30q129 71 234 173q54 54 100 117q46 66 85 137zM881 775h-36v-731q0 -46 -17 -63.5
t-68 -17.5h-112l8 -38h114q66 0 88.5 24t22.5 82v744zM562 -79l25 30q-97 86 -197 169q93 93 162 205l-28 18q-88 -139 -196.5 -231t-280.5 -175l22 -32q89 44 173 98q64 42 121 92q101 -85 199 -174zM658 106h36v582h-36v-582zM341 665l36 12q-31 62 -65 122l-34 -14
q32 -60 63 -120z" />
    <glyph glyph-name="uni5247" unicode="&#x5247;" 
d="M147 721v-552h335v552h-335zM863 787h-36v-733q0 -47 -18.5 -64.5t-72.5 -17.5h-116l7 -36h117q68 0 93.5 23t25.5 86v742zM182 687h266v-139h-266v139zM182 203v139h266v-139h-266zM182 515h266v-139h-266v139zM634 130h35v580h-35v-580zM269 101l-29 21
q-80 -104 -182 -188l25 -27q104 87 186 194zM527 -70l28 26q-82 85 -167 167l-26 -24q86 -82 165 -169z" />
    <glyph glyph-name="uni524A" unicode="&#x524a;" 
d="M118 -89h36v211h334v-86q0 -39 -15.5 -52.5t-59.5 -13.5h-100l6 -36h107q57 0 77.5 18.5t20.5 71.5v484h-185v293h-36v-293h-185v-597zM154 474h334v-142h-334v142zM154 298h334v-142h-334v142zM885 783h-36v-733q0 -45 -18.5 -62.5t-69.5 -17.5h-111l6 -36h115
q65 0 89.5 23.5t24.5 80.5v745zM664 115h36v574h-36v-574zM206 570l28 21q-61 88 -128 171l-27 -20q67 -84 127 -172zM562 739l-28 18q-58 -90 -125 -173l28 -20q65 85 125 175z" />
    <glyph glyph-name="uni524D" unicode="&#x524d;" 
d="M141 -92h37v223h249v-100q0 -39 -14.5 -52.5t-58.5 -13.5h-75l7 -35h80q56 0 76.5 19.5t20.5 72.5v475h-322v-589zM736 789l-37 18q-53 -78 -112 -152h-540v-34h900v34h-313q53 65 102 134zM178 462h249v-132h-249v132zM178 296h249v-131h-249v131zM842 539h-37v-495
q0 -45 -16 -60t-70 -15h-116l7 -36h118q70 0 92 21.5t22 80.5v504zM609 79h34v420h-34v-420zM340 666l34 20q-46 61 -93 121l-32 -21q46 -60 91 -120z" />
    <glyph glyph-name="uni5251" unicode="&#x5251;" 
d="M885 785h-35v-734q0 -46 -19 -63.5t-70 -17.5h-109l7 -35h111q67 0 91 23.5t24 81.5v745zM556 375l-33 8q-57 -179 -124 -355q-170 -14 -340 -27l3 -35q278 24 556 44v36l-182 -15q63 171 120 344zM592 516l25 28q-127 102 -259 198l27 47l-34 14q-58 -102 -141 -185
q-81 -80 -178 -141l20 -32q92 60 172 135q65 62 116 135q129 -96 252 -199zM665 117h34v590h-34v-590zM538 452v34h-384v-34h384zM200 93l32 9q-40 140 -88 277l-32 -8q49 -137 88 -278zM354 131l32 8q-34 126 -74 251l-32 -8q42 -124 74 -251z" />
    <glyph glyph-name="uni5254" unicode="&#x5254;" 
d="M149 743v-300h379v300h-379zM237 407l-31 12q-61 -128 -165 -225l22 -26q57 56 103 122h100q-28 -82 -84.5 -150.5t-140.5 -124.5l20 -26q86 62 146 135t90 166h104q-23 -122 -75.5 -201t-156.5 -161l22 -26q107 88 162.5 172.5t77.5 215.5h100q-8 -114 -18 -228
q-4 -48 -23 -63.5t-67 -15.5h-79l6 -32h84q56 0 81 20.5t29 80.5q12 135 21 270h-377q28 41 49 85zM885 787h-35v-741q0 -46 -17.5 -60.5t-71.5 -14.5h-97l7 -36h98q71 0 93.5 21t22.5 80v751zM183 713h311v-106h-311v106zM183 473v105h311v-105h-311zM673 126h34v587h-34
v-587z" />
    <glyph glyph-name="uni526A" unicode="&#x526a;" 
d="M151 237h36v113h253v-23q0 -30 -12.5 -41.5t-58.5 -11.5h-81l5 -26h83q61 0 80.5 18t19.5 61v246h-325v-336zM540 -27l6 -34h173q73 0 95.5 20t30.5 79l20 138h-763v-32h308q-19 -85 -86.5 -128t-242.5 -75l12 -34q186 36 259.5 86t95.5 151h375q-8 -49 -17 -98
q-7 -43 -24 -58t-75 -15h-167zM731 782l-30 18q-48 -59 -100 -114h-242l28 20q-43 50 -90 95l-28 -22q47 -45 90 -93h-301v-32h885v32h-296q44 46 84 96zM187 547h253v-74h-253v74zM187 448h253v-73h-253v73zM849 595h-34v-236q0 -40 -17 -59t-70 -19h-106l6 -30h107
q67 0 90.5 22t23.5 77v245zM623 336h33v244h-33v-244z" />
    <glyph glyph-name="uni526F" unicode="&#x526f;" 
d="M112 -97h35v69h397v344h-432v-413zM149 586v-173h359v173h-359zM884 780h-36v-727q0 -46 -19.5 -63.5t-70.5 -17.5h-113l8 -38h115q66 0 91 24.5t25 81.5v740zM183 556h290v-113h-290v113zM345 4v132h164v-132h-164zM147 136h164v-132h-164v132zM670 134h36v557h-36v-557
zM147 286h164v-120h-164v120zM509 286v-120h-164v120h164zM588 689v34h-520v-34h520z" />
    <glyph glyph-name="uni5272" unicode="&#x5272;" 
d="M581 500v28h-230v86h-34v-86h-230v-28h230v-88h-212v-30h212v-88h-263v-29h263v-94h-176v-268h36v67h350v201h-176v94h264v29h-264v88h212v30h-212v88h230zM177 141h314v-141h-314v141zM883 786h-36v-736q0 -46 -18.5 -63.5t-70.5 -17.5h-110l7 -36h113q65 0 90 24t25 82
v747zM92 571h34v89h413v-89h34v119h-185q-31 60 -65 118l-36 -12q30 -52 58 -106h-253v-119zM679 116h34v575h-34v-575z" />
    <glyph glyph-name="uni5275" unicode="&#x5275;" 
d="M537 254v264h-372v-151q0 -152 -23 -231t-98 -177l26 -22q62 82 90.5 150t35.5 167h341zM218 -94h35v62h294v193h-329v-255zM884 781h-34v-730q0 -45 -18.5 -61.5t-71.5 -16.5h-109l7 -38h111q67 0 91 22.5t24 79.5v744zM253 131h260v-133h-260v133zM199 347v24h304v-87
h-306q2 31 2 63zM199 488h304v-87h-304v87zM382 790l-38 8q-56 -93 -136 -167q-77 -71 -167 -124l14 -32q89 53 167 122q64 57 115 125q132 -87 263 -176l18 31q-131 86 -263 170zM679 120h34v574h-34v-574zM369 530l29 13l-65 102l-28 -13q31 -51 64 -102z" />
    </font>
</defs>
</svg>
